<?xml version="1.0" encoding="utf-8"?>
<!-- Generator: Adobe Illustrator 24.1.0, SVG Export Plug-In . SVG Version: 6.00 Build 0)  -->
<svg version="1.0" id="Layer_1" xmlns="http://www.w3.org/2000/svg" xmlns:xlink="http://www.w3.org/1999/xlink" x="0px" y="0px"
	 viewBox="0 0 107.1 266.8" style="enable-background:new 0 0 107.1 266.8;" xml:space="preserve">
<style type="text/css">
	.st0{fill:#FFFFFF;}
	.st1{fill:#D6565D;}
</style>
<path class="st0" d="M107.1,53.5C107.1,24,83.1,0,53.5,0S0,24,0,53.5v1.2h10v42.4h21.2v39.9H10V182h21.2v39.9v2.5v42.4H76v-42.4
	v-2.5V182h21.2v-44.9H76V97.2h21.2V54.8h9.9V53.5z M12.4,94.7V54.8h39.9v39.9H31.1H12.4z M12.4,179.5v-39.9h18.7h21.2v39.9H31.1
	H12.4z M73.5,264.3H33.6v-39.9h39.9V264.3z M73.5,221.9H33.6V182h18.8h2.5h18.7V221.9z M94.7,139.6v39.9H76H54.8v-39.9H76H94.7z
	 M73.5,137.1H54.8h-2.5H33.6V97.2h18.8h2.5h18.7V137.1z M94.7,94.7H76H54.8V54.8h39.9V94.7z M97.2,52.3H54.8h-2.5H10H2.5
	C3.1,24.7,25.8,2.5,53.5,2.5s50.4,22.3,51.1,49.9H97.2z"/>
<g>
	<path class="st1" d="M52.3,238.7h2.4h0.1v0.1v15.8v0.1h-0.1h-1.2h-1.2h-0.1v-0.1L52.3,238.7L52.3,238.7L52.3,238.7z"/>
</g>
<g>
	<path class="st1" d="M60.9,198.8c0,4.2-3.2,7.4-7.4,7.4h-1.2l-2.3,4.7h10.8h0.1v0.1v2.4v0.1h-0.1h-6.1h-4.9h-3.6v-0.1l-0.1,0
		l4.9-9.7v-0.1h0.1h2.4c2.7,0,4.8-2.1,4.8-4.8c0-2.7-2.1-4.8-4.8-4.8c-2.7,0-4.8,2.1-4.8,4.8h-0.1v0.1h-2.4v-0.1h-0.1
		c0-4.2,3.2-7.4,7.4-7.4C57.7,191.4,60.9,194.6,60.9,198.8z"/>
</g>
<g>
	<path class="st1" d="M49.9,105.6h4.8h6.1h0.1v0.1v2.4v0.1h-0.1H50l2.4,4.7h1.1h0.1c4.1,0,7.3,3.2,7.3,7.4c0,4.2-3.2,7.4-7.4,7.4
		c-4.2,0-7.4-3.2-7.4-7.4h0.1v-0.1h2.4v0.1h0.1c0,2.7,2.1,4.8,4.8,4.8c2.7,0,4.8-2.1,4.8-4.8c0-2.7-2-4.7-4.7-4.8h-0.1h-2.4H51v-0.1
		l-4.9-9.7l0.1,0v-0.1H49.9z"/>
</g>
<g>
	<path class="st1" d="M24.8,149.2h10.9h1.2v0.1l0.1,0l-3.7,8.6c2.9,0.8,4.9,3.3,4.9,6.5c0,3.9-3,6.8-6.8,6.8c-3.6,0-6.4-2.6-6.8-6
		v-2.6h0.1h2.4h0.1v0.1v1.8c0,2.4,1.8,4.2,4.2,4.2c2.4,0,4.2-1.8,4.2-4.2c0-2.4-1.8-4.1-4.2-4.1h-1.8h-2.4h-0.1v-0.1v-2.4v-0.1h0.1
		h3.6l2.5-5.9h-3.1h-5.5h-0.1v-0.1L24.8,149.2L24.8,149.2L24.8,149.2z"/>
</g>
<g>
	<path class="st1" d="M77.4,149.2L77.4,149.2l0.1,0.1l-7.2,14.5h8.3v-8.4v-0.1h0.1H81h0.1v0.1v8.4v0.1v2.4v0.1v4.8v0.1H81h-1.2h-1.2
		h-0.1v-0.1v-4.8H75h-6.1h-0.1h-2.4v-0.1l-0.1,0l8.5-17l0.1,0v-0.1H77.4z"/>
</g>
<g>
	<path class="st1" d="M32.8,64.8L32.8,64.8l0.1,0.1l-3.1,6.3c0.8-0.2,1.6-0.4,2.4-0.4c4.5,0,8,3.5,8,8c0,4.5-3.5,8-8,8
		c-4.5,0-8-3.5-8-8c0-1.8,0.5-3.4,1.5-4.7l4.7-9.3l0.1,0v-0.1H32.8z M26.7,78.9c0,3.1,2.3,5.4,5.4,5.4c3,0,5.4-2.3,5.4-5.4
		c0-3-2.3-5.4-5.4-5.4C29.1,73.5,26.7,75.8,26.7,78.9z"/>
</g>
<g>
	<path class="st1" d="M69,64.8h10.9h1.2v0.1l0.1,0l-9.7,21.9l-0.1,0v0.1H69v-0.1l-0.1,0l8.6-19.3h-3H69h-0.1v-0.1L69,64.8L69,64.8
		L69,64.8z"/>
</g>
<g>
	<path class="st1" d="M59.7,25.3c0,2-0.9,3.7-2.3,4.9c1.4,1.1,2.3,2.9,2.3,4.9c0,3.5-2.7,6.2-6.2,6.2c-3.5,0-6.2-2.7-6.2-6.2
		c0-2,0.9-3.7,2.3-4.9c-1.4-1.1-2.3-2.9-2.3-4.9c0-3.5,2.7-6.2,6.2-6.2C57.1,19.1,59.7,21.8,59.7,25.3z M50,25.3
		c0,2,1.5,3.6,3.6,3.6c2,0,3.6-1.5,3.6-3.6c0-2-1.5-3.6-3.6-3.6C51.5,21.7,50,23.3,50,25.3z M50,35c0,2,1.5,3.6,3.6,3.6
		c2,0,3.6-1.6,3.6-3.6s-1.5-3.6-3.6-3.6C51.5,31.4,50,33,50,35z"/>
</g>
</svg>
