<?xml version="1.0" encoding="utf-8"?>
<!-- Generator: Adobe Illustrator 24.1.0, SVG Export Plug-In . SVG Version: 6.00 Build 0)  -->
<svg version="1.0" id="Layer_1" xmlns="http://www.w3.org/2000/svg" xmlns:xlink="http://www.w3.org/1999/xlink" x="0px" y="0px"
	 viewBox="0 0 712.8 638.4" style="enable-background:new 0 0 712.8 638.4;" xml:space="preserve">
<style type="text/css">
	.st0{fill:none;stroke:#D6565D;stroke-width:5;stroke-miterlimit:10;}
	.st1{fill:#FFFFFF;}
	.st2{fill:none;stroke:#FFFFFF;stroke-width:4;stroke-linecap:round;stroke-miterlimit:10;}
</style>
<path class="st0" d="M271.2,385.4c68.5,19.7,140.7,26.5,212.4,28.7c30.6,1,64.9-0.1,86.5-20.7c8-7.6,13.4-19.5,10.4-29.3"/>
<path class="st0" d="M562.7,233.6c3.4-1.1,6.4-2.8,8.7-5.5c9-10.4,0.3-26.1-10.3-35.2c-25.9-22.1-61.5-30.6-95.8-36.3
	c-49.4-8.2-100.2-12.3-149.5-3.7s-97.2,31-128.3,68.2c-21.2,25.4-33.9,59.8-23.2,90.6c12.8,36.7,53.8,57.2,92.5,69.5
	c4.8,1.5,9.5,3,14.3,4.3"/>
<g>
	<path class="st1" d="M308.6,97.8l-9.4,5.4c0,0,0-0.1,0-0.1c-7.6,4.8-15.3,9.5-23,13.9c-0.6,0.3-1.2,0.7-1.7,1
		c-7.2,4.1-14.7,8.1-22.1,12c0,0,0.1,0.1,0.1,0.1l-9.4,5.4c-1.9,1.1-2.5,3.5-1.4,5.4l37.5,65.2c11.5-6.1,23-12.4,34.2-18.8
		c12.8-7.3,25.5-14.9,38.1-22.8L314,99.2C312.9,97.3,310.5,96.7,308.6,97.8z"/>
	<path class="st1" d="M298.2,100.2l-5.9-10.3c-0.3-0.5-0.7-1-1.2-1.3c-6.5,4.1-13,8-19.7,11.8c-0.6,0.3-1.2,0.7-1.7,1
		c-8.4,4.8-16.9,9.4-25.5,13.7c0,0.7,0.1,1.4,0.5,2.1l5.9,10.2c7.6-3.9,15.1-8,22.5-12.2C281.5,110.5,289.9,105.4,298.2,100.2z"/>
	<path class="st1" d="M355.3,165.5c-12.5,7.8-25.2,15.5-38,22.9c-0.8,0.5-1.6,0.9-2.4,1.4c-12.5,7.1-25.2,14.1-38,20.8
		c-12.6,17.8-28.2,30.4-39.2,51.1c58.6,101.8,119.1,207.1,177.7,308.9c26-8.3,57.1-20.5,90.4-39.1c38.6-21.5,68.8-45.1,91.2-65.3
		c-58.6-101.8-119.1-207.1-177.7-308.9C395.8,156.1,377.5,164.2,355.3,165.5z"/>
	<path class="st1" d="M239.6,105.4c2-0.5,4.3-0.9,5.8,0.4c1.2,1,1.6,2.8,2.6,4c6.8-3.5,13.5-7.2,20.2-11c5.3-3,10.6-6.2,15.9-9.4
		c-2.5-3.7-4.9-7.5-6.3-11.7c-1.6-4.8-1.6-10.3,1-14.6c-2-1.9-5.3-1.7-7.7-0.4c-3.3,1.8-5.4,4.4-6.1,5.6
		c-5.4,8.5-18.5,9.2-34.8,16.8c-6.8,3.2-11.4,6.4-20.5,12.9c-10.4,7.4-24.6,19-39.3,36.5c4.8,1.2,9.5,2.4,14.3,3.6
		C199.3,122.3,218.6,110.8,239.6,105.4z"/>
</g>
<line class="st2" x1="529" y1="78.4" x2="529" y2="129.6"/>
<line class="st2" x1="503.4" y1="104" x2="554.6" y2="104"/>
<path class="st0" d="M580.5,364.1c-0.6-2-1.6-3.9-3-5.7c-1.7-2.3-18.3-10.6-27.2-11.1c-6.8-0.4-240.4-10.2-283.6,130.8
	c-10.7,35-15.3,97.5,23.3,130.6c40.9,35,120.4,28.8,184.9-28.4"/>
<path class="st0" d="M471.4,12.8c-30.7-12.3-68.4,6.5-82.5,35.1s-8.6,62.9,5.9,91.4c27.5,54.1,87.2,92.1,150.6,95.8
	c5.8,0.3,12,0.2,17.4-1.5"/>
<line class="st2" x1="520.7" y1="112.4" x2="537.4" y2="95.7"/>
<line class="st2" x1="520.7" y1="95.7" x2="537.4" y2="112.4"/>
<line class="st2" x1="503.4" y1="179.9" x2="503.4" y2="212.3"/>
<line class="st2" x1="487.2" y1="196.1" x2="519.6" y2="196.1"/>
<line class="st2" x1="498.1" y1="201.4" x2="508.7" y2="190.8"/>
<line class="st2" x1="498.1" y1="190.8" x2="508.7" y2="201.4"/>
<line class="st2" x1="180.4" y1="230.1" x2="180.4" y2="262.5"/>
<line class="st2" x1="164.2" y1="246.3" x2="196.6" y2="246.3"/>
<line class="st2" x1="175.1" y1="251.6" x2="185.7" y2="241"/>
<line class="st2" x1="175.1" y1="241" x2="185.7" y2="251.6"/>
<line class="st2" x1="154.8" y1="353.9" x2="154.8" y2="405.1"/>
<line class="st2" x1="129.2" y1="379.5" x2="180.4" y2="379.5"/>
<line class="st2" x1="146.4" y1="387.8" x2="163.2" y2="371.1"/>
<line class="st2" x1="146.4" y1="371.1" x2="163.2" y2="387.8"/>
<line class="st2" x1="61.9" y1="162.2" x2="61.9" y2="262.5"/>
<line class="st2" x1="11.7" y1="212.3" x2="112" y2="212.3"/>
<line class="st2" x1="45.5" y1="228.7" x2="78.3" y2="195.9"/>
<line class="st2" x1="45.5" y1="195.9" x2="78.3" y2="228.7"/>
<line class="st2" x1="654.4" y1="486.8" x2="654.4" y2="587.1"/>
<line class="st2" x1="604.2" y1="536.9" x2="704.6" y2="536.9"/>
<line class="st2" x1="638" y1="553.3" x2="670.8" y2="520.6"/>
<line class="st2" x1="638" y1="520.6" x2="670.8" y2="553.3"/>
</svg>
