<?xml version="1.0" encoding="utf-8"?>
<!-- Generator: Adobe Illustrator 24.1.0, SVG Export Plug-In . SVG Version: 6.00 Build 0)  -->
<svg version="1.0" id="Layer_1" xmlns="http://www.w3.org/2000/svg" xmlns:xlink="http://www.w3.org/1999/xlink" x="0px" y="0px"
	 viewBox="0 0 683.6 590.7" style="enable-background:new 0 0 683.6 590.7;" xml:space="preserve">
<style type="text/css">
	.st0{fill:none;}
	.st1{fill-rule:evenodd;clip-rule:evenodd;fill:#FFFFFF;}
	.st2{fill:#FFFFFF;}
	.st3{fill:none;stroke:#D6565D;stroke-width:5;stroke-miterlimit:10;}
</style>
<g>
	<g>
		<g>
			
				<rect x="483.8" y="641.2" transform="matrix(0.9471 -0.3211 0.3211 0.9471 -181.0222 194.836)" class="st0" width="33" height="10.2"/>
			<path class="st1" d="M515.6,640c0,0.1,0,0.1,0,0.2C515.6,640.1,515.5,640.1,515.6,640C515.5,640,515.5,640,515.6,640z"/>
			<path class="st1" d="M512.2,637.7c-0.1,0-0.1-0.1-0.2-0.1c-0.1,0,0,0.1-0.1,0.1c-0.5,0-0.8,0.2-1.1,0.5c0-0.1-0.1-0.1-0.1-0.1
				c-0.1-0.2-0.1-0.3-0.1-0.4c0.4-0.3,0.7-0.4,1.1-0.7C511.9,637.5,512.1,637.3,512.2,637.7z"/>
			<path class="st1" d="M507.8,638.6c-0.1-0.1-0.1,0-0.2-0.2C507.7,638.4,507.8,638.5,507.8,638.6z"/>
			<path class="st1" d="M510.6,647.9c-0.1,0.1-0.2,0.2-0.3,0c-0.1,0.2-0.1,0.3-0.3,0.4c0-0.1-0.1-0.1-0.1-0.2
				C510,647.8,510.3,647.1,510.6,647.9z"/>
			<path class="st1" d="M504.4,641.2c0.1,0,0,0.1,0,0.1C504.5,641.4,504.4,641.4,504.4,641.2C504.4,641.3,504.5,641.3,504.4,641.2z"
				/>
			<path class="st1" d="M502.2,641.5c0,0.1,0,0.2,0,0.2C502.1,641.6,502.1,641.5,502.2,641.5z"/>
			<path class="st1" d="M499.6,643.8c-0.2-0.1-0.1,0.2-0.2,0c-0.1,0.2-0.5,0.1-0.6,0.3c-0.1,0.1-0.1,0.2-0.2,0.3
				c-0.3,0.3-0.8,0.4-1.2,0.5c-0.2,0.1-0.5,0.2-0.7,0.2c0-0.6,0.5-0.5,0.7-0.6c0,0,0.1-0.1,0.1-0.2c0.7-0.1,1-0.9,1.8-0.6
				c0.1-0.1,0.2-0.1,0.3-0.2c0,0,0,0,0.1,0.1C499.6,643.6,499.6,643.7,499.6,643.8z"/>
			<path class="st1" d="M497.5,645.8c0,0.1-0.2,0.1-0.2-0.1c0,0.1-0.2,0-0.2,0.1c-0.6-0.2-1.3,0.2-2,0.1c-0.1-0.2,0-0.2,0-0.3
				c0.3,0,0.4-0.4,0.7-0.3c0.2-0.3,0.8,0,1.1,0c0.2,0.1,0.4,0.1,0.6,0C497.4,645.5,497.5,645.7,497.5,645.8z"/>
			<path class="st1" d="M495.8,646.5c0,0,0,0.1,0,0.1c-0.1,0.1-0.3,0-0.4,0.2c0-0.2,0.1-0.2,0.1-0.4
				C495.5,646.5,495.6,646.4,495.8,646.5z"/>
			<path class="st1" d="M494.9,645.8c0.1,0.2-0.1,0.2-0.2,0.1C494.8,645.8,494.9,645.9,494.9,645.8z"/>
			<path class="st1" d="M491.2,646.9c0,0.1,0,0.5-0.1,0.3c-0.1,0.3-0.3,0.3-0.5,0.5c0-0.2-0.1-0.1-0.2,0c0.1,0.1,0-0.1,0.1,0.1
				c-0.1,0.1-0.3,0.1-0.4,0.3c0-0.1,0-0.1,0-0.1c0,0,0,0-0.1,0c0-0.1,0.1-0.1,0.1,0c0,0,0-0.1,0.1-0.1c-0.1,0-0.1-0.2-0.2-0.2
				c0-0.1,0,0,0-0.1c0,0,0.1,0.1,0.1,0.2c0-0.1,0.3-0.1,0.2-0.3c0-0.1,0.3,0.2,0.3-0.1C490.8,647.3,490.9,647,491.2,646.9z"/>
			<path class="st1" d="M490,648c0,0-0.1-0.1-0.1-0.2C489.9,647.8,490,647.9,490,648z"/>
			<path class="st1" d="M489.9,648.1c-0.1,0-0.1-0.1-0.1-0.1C489.8,647.9,489.9,648,489.9,648.1z"/>
			<path class="st1" d="M489.5,647.9c0,0.1-0.1,0-0.1,0.1C489.4,647.9,489.5,648,489.5,647.9z"/>
			<path class="st1" d="M489.3,648.1c0,0.1,0,0.2-0.1,0.2C489.2,648.2,489.3,648.1,489.3,648.1z"/>
			<path class="st1" d="M486.8,647.2c-0.1,0-0.1-0.1-0.2-0.2C486.7,647.1,486.8,647.1,486.8,647.2z"/>
			<path class="st1" d="M492.6,653.1c0.2,0,0.4,0.1,0.5-0.1c0.4,0,0.9,0.1,1.1-0.2c0.2,0.1,0.3-0.1,0.4-0.1c0.7,0.1,1.2-0.5,1.6-1.1
				c0,0,0.1,0,0.1,0c0.1-0.2,0.2-0.4,0.4-0.6c0.3-0.3,0.9-0.3,1.3-0.4c0,0.1,0,0.1,0.1,0.1c0.5,0,1,0.3,1.4,0.2
				c0.1,0,0.2-0.2,0.3-0.1c0.1-0.2,0.2-0.3,0.3-0.4c0.3,0,0.6-0.2,0.8-0.6c0.2,0.1,0.3-0.2,0.4-0.2c0.8-0.4,1.9-0.7,2.7-1
				c0-0.2,0.1-0.1,0.2-0.2c0.3,0.1,0.7-0.2,0.9-0.5c0.2,0.1,0.4-0.1,0.6,0c0.2,0,0.4,0.2,0.5,0c0.4,0,0.7-0.4,1.2-0.2
				c0.2,0.1,0.4,0.2,0.6,0.2c0.2-0.1,0.4-0.1,0.6-0.3c0,0,0-0.1,0-0.1c0.2,0,0.3-0.4,0.5-0.3c0.2-0.4,0.3-0.9,0.8-1
				c0.1-0.5,0.5-0.5,0.7-0.7c0.2,0,0.6-0.1,0.8,0.2c0.1,0,0.3,0,0.4-0.1c0.1,0,0.1,0.1,0.2,0.1c0-0.1,0-0.1,0.1-0.2
				c0.4,0.2,0.8,0,1-0.3c0.1,0.1,0.1-0.1,0.2,0.1c0.5-0.4,0.9-1,1.6-0.8c0.2,0.4,0.5,0.6,0.7,1.1c0.1,0.1,0.2,0.1,0.2,0.2
				c0,0.1,0.1,0.1,0.1,0.2c0.2,0.1,0.6,0.3,0.7,0c0-0.4-0.1-0.8-0.3-1.2c-0.2-0.8-0.8-1.7-0.4-2c-0.1-0.4,0-0.6-0.3-1.1
				c-0.2-0.2-0.4-0.5-0.6-0.7c0-0.1,0-0.1-0.1-0.2c-0.1,0-0.2,0.1-0.3-0.1c0.2,0,0.1-0.3,0.3-0.4c0-0.4-0.2-1-0.2-1.3
				c0.1,0,0.1,0.1,0.1,0c-0.1-0.3-0.2-0.3-0.1-0.5c-0.1-0.1-0.1-0.1-0.2-0.1c-0.2-0.4-0.4-0.5-0.6-0.6c-0.5,0.2-1-0.2-1.3,0
				c-0.1-0.2-0.2-0.2-0.3,0c-0.1-0.1-0.1-0.3-0.2-0.3c0,0.1,0.1,0.2,0.1,0.3c0,0.1-0.2,0.2-0.3,0.1c-0.1,0.2-0.3,0.2-0.4,0.5
				c-0.1-0.1-0.2-0.2-0.4-0.2c0,0.1,0,0.2,0,0.3c-0.3,0.3-0.6-0.1-0.9,0.3c-0.1-0.1-0.3,0-0.4,0c-0.5-0.3-1.1-0.2-1.4,0.3
				c-0.3-0.3-0.4,0-0.6-0.1c-0.3-0.1-0.7-0.3-0.9,0c0,0,0,0.1,0,0.1c-0.2,0-0.4,0.2-0.6,0.3c-0.2,0.1-0.4,0-0.5,0.1
				c-0.2,0.1-0.2,0.3-0.2,0.7c-0.1,0-0.1,0.5-0.4,0.4c0,0.1,0,0.2,0,0.2c0,0-0.1,0-0.1-0.1c0,0.1,0.1,0.1,0.1,0.2
				c0.1-0.1,0.1-0.1,0.2-0.3c0,0,0.1,0,0.1,0c0.1-0.3,0.3-0.7,0.5-0.9c0.2-0.2,0.5-0.1,0.6-0.4c0,0,0.1,0.1,0.1,0.2
				c0-0.2,0.2,0,0.3-0.1c0.1-0.1,0.1-0.3,0.2-0.3c0.2-0.1,0.3,0,0.6,0c0.2,0.2,0.3,0,0.4,0.2c0,0.1-0.2-0.1-0.2,0.1
				c0,0,0.1,0,0.1,0.1c-0.1,0.3,0,0.8-0.2,1.1c-0.2,0-0.3,0.2-0.4,0.3c-0.7,0-1.6,0.4-2.1,0.9c-0.2-0.1-0.3,0-0.5,0.1
				c-0.4-0.4-0.7,0.4-1,0.2c0,0.4-0.3,0.3-0.5,0.2c0.1,0.3-0.1,0.2-0.2,0.2c0-0.1,0-0.1,0-0.1c0,0,0,0.1,0,0.1
				c-0.1-0.1-0.1-0.1-0.2-0.2c-0.1,0-0.1,0.1-0.1,0.1c0-0.1,0-0.2,0-0.2c0.1-0.1,0.1,0,0.2,0.1c0-0.1-0.1-0.1,0-0.2
				c0.1,0.2,0.1-0.1,0.2,0.1c0,0-0.1,0,0,0.1c0.1-0.1,0.1-0.1,0.2-0.2c0,0-0.1,0,0,0c-0.8-0.2-1.3,0.2-1.9,0.5
				c-0.1-0.1-0.1-0.1-0.2-0.1c-0.2,0.2-0.3,0.2-0.2,0.6c0.2-0.1,0.4-0.2,0.7-0.3c0.1,0.1,0.2,0.2,0.3,0.4c-0.2,0.2-0.6,0.1-0.9,0.3
				c0,0,0,0.1-0.1,0.1c-0.2,0.1-0.4,0-0.5,0.1c-0.3,0-0.6,0.2-0.9,0.2c-0.1,0-0.2-0.1-0.2,0c0.2,0,0.4,0,0.5-0.1
				c0.2,0.1,0.5,0,0.7,0c0.5,0.2,0.7-0.2,1.3-0.2c0.1,0.2,0.1,0.1,0.2,0.1c0.1,0.2,0.2,0.3,0.3,0.3c0-0.1-0.1-0.1,0-0.2
				c0.1,0.1,0.2,0.1,0.2,0.3c0,0-0.1,0-0.1,0c0.1,0.2,0.2,0.1,0.3,0.3c-0.3,0.2-0.5,0.7-0.9,0.7c-0.1-0.1-0.2-0.2-0.2-0.3
				c0,0.2,0.2,0.2,0.3,0.4c-0.1,0.2-0.2,0.2-0.3,0.4c0,0-0.1-0.2-0.1-0.1c-0.4,0-0.5,0.3-0.8,0.5c-0.4,0.2-0.8,0.2-1.2,0.5
				c0,0-0.1-0.2-0.1-0.1c-0.3,0-0.6,0.3-1-0.2c-0.1,0.1-0.2-0.1-0.3-0.1c0,0,0,0.1-0.1,0.1c-0.1-0.1-0.2,0-0.3,0
				c-0.1,0-0.3-0.2-0.4-0.2c-0.2,0-0.3,0.1-0.3,0.2c-0.1,0.1-0.2,0.2-0.2,0.5c0.1,0.1,0.1,0.1,0.2,0.2c0.1-0.2,0.1-0.5,0.3-0.6
				c0.1,0,0.3,0.2,0.3,0.1c0,0,0,0.1,0,0.1c0.5-0.3,1.1,0.6,1.6,0.3c0.2,0.1,0.4,0.3,0.6,0.5c-0.2,0-0.2,0.3-0.4,0.3
				c-0.3,0.7-1.1,0.5-1.5,0.9c-0.5-0.1-0.7,0.3-1.1,0.5c-0.1-0.2-0.3-0.1-0.4-0.1c0,0,0.1,0.2,0,0.2c-0.3,0.1-0.5-0.5-0.8-0.6
				c0,0-0.1,0.1-0.1,0.1c-0.1,0-0.2,0-0.3,0c-0.2,0.1-0.3,0.4-0.5,0.5c-0.3,0.1-0.7,0.2-1,0.3c-0.4-0.2-0.7,0.3-1.1,0.2
				c-0.2,0.3-0.8,0.1-0.9,0.7c0,0-0.1-0.1-0.1-0.1c-0.1,0.2-0.3,0.2-0.3,0.6c0,0-0.1,0-0.1,0c-0.4,0.5-0.7,1.3-1.4,1.4
				c-0.3-0.3-0.7-0.7-1-0.9c-0.3-0.4-0.7-0.9-1-1c-0.2,0.3-0.3,1.1-0.3,1.5c-0.1,0.1-0.1,0.4,0,0.5c-0.2,0.3-0.4,0.5-0.7,0.7
				c-0.5,0.4-1.2-0.6-1.8-0.3c0,0-0.1-0.1-0.1-0.1c0,0.2-0.3-0.1-0.2,0.3c0.2,0.2,0.4,0.3,0.6,0.2c0.1,0.2,0.2,0,0.3,0.1
				c0.1,0,0.3,0.3,0.5,0.3c0,0,0-0.1,0.1-0.1c0.1,0,0.2,0.2,0.3,0.1c0.3,0,0.3-0.1,0.5-0.3c0.4-0.3,0.8-0.6,0.7-1.4
				c0.2,0,0-0.6,0.1-0.8c0.2-0.1,0.1-0.2,0.3-0.2c0.7,0.7,1.3,1.7,2,2.2c0.1-0.1,0.2-0.1,0.3,0c-0.3,0.8-1.6,0.4-1.9,1.2
				c0.1,0.2,0.2,0,0.2,0c0.4-0.1,0.9-0.2,1.4-0.5c0.3-0.1,0.4-0.6,0.8-0.7c0.2,0,0.4,0.1,0.6,0c0,0.1,0.1,0,0.1,0.1
				c0.2-0.2,0.7,0.5,0.8,0C492.6,653,492.6,653,492.6,653.1z M515.4,642.1C515.4,642.1,515.4,642,515.4,642.1
				C515.4,642,515.4,642,515.4,642.1c-0.1-0.2,0-0.2-0.1-0.2c-0.1-0.1-0.1-0.1-0.2-0.1C515.3,641.6,515.5,641.9,515.4,642.1z
				 M513.9,641.3c-0.1-0.4,0.1-0.5,0.2-0.5c0.1,0,0.2,0.2,0.2,0.3C514.2,641.3,513.9,641.1,513.9,641.3z M513.5,642
				c0,0.1,0,0.1,0,0.2c-0.2-0.1-0.4,0-0.5-0.2C513.2,641.9,513.3,642,513.5,642z M512.7,641.6c0,0.1,0,0.1,0,0.2
				c0-0.1-0.1-0.1-0.2-0.2C512.7,641.5,512.7,641.6,512.7,641.6z M513,642.5c-0.2,0-0.5-0.1-0.8,0c-0.2,0.1-0.3,0.5-0.5,0.4
				c0.1-0.3,0.4-0.4,0.4-0.7c0.2,0,0.5,0.1,0.6-0.1C512.8,642.3,512.9,642.3,513,642.5z M512.5,641.6c0,0,0,0.1,0,0.1
				c-0.1,0.1-0.2,0.2-0.3,0C512.4,641.6,512.4,641.6,512.5,641.6z M512.3,641.6c0,0,0,0.1,0,0.2
				C512.2,641.8,512.2,641.5,512.3,641.6z M512,640.8c-0.1-0.1-0.1,0-0.1,0c-0.1,0-0.2-0.2-0.3-0.2c-0.1,0-0.1,0.2-0.3,0.3
				c0,0,0,0.2,0,0.2c-0.6,0.5-1.2,0.9-2.1,0.8c-0.1-0.4,0.2-0.3,0-0.9c0.4-0.3,0.8-0.1,1-0.6c0.2-0.1,0.5,0,0.8-0.1
				C511.4,640.2,511.7,640.2,512,640.8z M510.3,640.1c-0.1,0-0.1-0.1-0.1-0.1c-0.1,0.1-0.2,0-0.3-0.1c-0.2,0-0.5,0.4-0.8,0.1
				c0.1,0,0.1-0.4,0.2-0.3c0-0.6,0.1-0.8,0.5-0.7c0.1,0,0.2,0.2,0.3,0.2c0.2,0,0.3-0.2,0.4,0C510.8,639.8,510.4,639.7,510.3,640.1z
				 M511.7,643c0,0.1-0.1,0-0.1,0.1C511.5,642.9,511.7,643,511.7,643z M509.1,644.2c-0.2,0.1-0.4,0.3-0.7,0.3c-0.3,0-0.5-0.2-0.8,0
				c-0.1,0-0.1,0.2-0.2,0.3c-0.1,0.1-0.3,0-0.4,0.3c-0.2,0-0.4-0.1-0.5,0.2c-0.1-0.3,0.1-0.7,0.1-0.9c0.8-0.2,1.5-0.7,2.4-0.3
				C509.1,644.1,509.1,644.1,509.1,644.2z M505.5,645.7C505.5,645.7,505.5,645.7,505.5,645.7c-0.3,0-0.3,0.3-0.5,0.3
				c-0.1,0-0.2-0.1-0.3,0c-0.1,0-0.2,0.3-0.3,0c-0.1,0.2-0.3,0.1-0.4,0.3c-0.1-0.2,0.1-0.4-0.1-0.6c0,0.1,0,0.3,0,0.4
				c-0.1,0-0.2,0-0.3-0.2c0.1-0.3,0.5-0.5,0.8-0.4c0.1-0.2,0.2-0.1,0.4-0.1c0-0.1-0.1-0.1-0.1-0.1c0.1-0.2,0.5,0.3,0.6,0.2
				C505.5,645.5,505.5,645.7,505.5,645.7z M503.7,646.1c0,0-0.1-0.1-0.1-0.1c0-0.1,0-0.2,0-0.2C503.7,645.9,503.7,646,503.7,646.1z
				 M503.4,648.2c-0.3,0.1-0.5,0.3-0.7,0.4c-0.3,0.2-0.9,0.2-1.2,0.6c-0.2,0-0.5,0-0.5,0.3c-0.3,0-0.5,0.3-0.7,0.5
				c-0.4,0-0.7,0.4-1.1,0.3c-0.1,0-0.2-0.2-0.3-0.2c-0.1,0-0.2,0.1-0.3,0c-0.1,0-0.3-0.2-0.5-0.2c-0.1,0-0.1,0.1-0.2,0.1
				c0,0-0.1-0.1-0.1-0.1c-0.1-0.1-0.2,0.1-0.4,0c-0.3,0.2-0.6,0.3-0.9,0.5c0.1-0.3,0.2-0.5,0.1-1c0.2-0.1,0.3-0.2,0.5-0.2
				c0.1,0,0.2,0.1,0.4-0.1c0.1,0,0.1-0.2,0.2-0.2c0.2-0.1,0.5,0,0.8-0.1c0.2-0.1,0.3-0.3,0.6-0.1c0.3-0.2,0.8-0.1,0.9-0.5
				c0.3,0.1,0.4-0.2,0.6-0.3c0.3,0.3,0.7,0.6,1,0.4c0.2-0.2,0.2-0.9,0.3-1.1c0.2,0.1,0.2-0.1,0.3-0.1c0.2,0,0.5,0.2,0.7-0.1
				c0.1,0.4,0.2,0.7,0.2,1C503.2,648,503.3,648,503.4,648.2z M496.4,650.4c0,0.1,0,0.2,0.1,0.3c-0.1-0.1-0.2,0.2-0.2,0.3
				c-0.3,0.1-0.4,0.4-0.7,0.5c-0.1,0-0.1-0.1-0.2-0.1c-0.2,0.1-0.4,0.1-0.6,0.1c-0.2,0-0.4,0.2-0.5,0.3c-0.2,0.1-0.5-0.2-0.6,0.2
				c-0.2,0-0.6-0.1-0.7,0.1c-0.2-0.1-0.5,0-0.8-0.1c-0.4,0.3-0.5,0.9-1,0.7c0.1-0.3,0.4-0.2,0.4-0.5c0.2,0,0.3-0.3,0.4-0.5
				c0.1-0.1,0.2-0.2,0.3-0.3c0.1-0.1,0.1-0.3,0.3-0.4c0.1,0,0.2-0.1,0.3-0.1c0.2-0.1,0.5,0.1,0.6,0c0,0,0.1-0.1,0.1-0.1
				c0.1,0,0.3,0.1,0.4,0.1c0,0,0-0.1,0.1-0.1c0.1,0,0.2,0.1,0.2,0.1c0.4,0.1,0.9-0.2,1.3-0.3c0.1,0,0.2,0,0.3,0
				c0.1,0,0.1-0.1,0.2-0.1C496.1,650.3,496.3,650.5,496.4,650.4z M492.5,652.9C492.4,652.9,492.5,653,492.5,652.9
				C492.3,652.8,492.4,652.8,492.5,652.9z"/>
			<path class="st1" d="M505,641.2c0,0,0-0.1,0.1-0.1c0.1,0.1,0.2-0.2,0.4,0c-0.2,0.1-0.4,0.2-0.7,0.3
				C504.8,641.1,505,641.1,505,641.2z"/>
			<path class="st1" d="M504.5,641.2c0.1,0,0-0.1,0.1-0.2c0,0.1-0.1,0.2,0,0.3C504.5,641.4,504.6,641.3,504.5,641.2z"/>
			<path class="st1" d="M489.9,647.6c0,0.2-0.3,0.2-0.4,0.4C489.6,647.7,489.8,647.7,489.9,647.6z"/>
		</g>
	</g>
</g>
<g>
	<g>
		<g>
			
				<rect x="507.5" y="644.8" transform="matrix(0.8936 -0.4488 0.4488 0.8936 -250.175 302.2721)" class="st0" width="10.2" height="68.1"/>
			<path class="st1" d="M528.8,708.8c-0.1,0.1-0.1,0-0.2,0c0-0.1,0-0.1,0.1-0.2C528.7,708.7,528.8,708.7,528.8,708.8z"/>
			<path class="st1" d="M529.5,702.8c-0.1-0.2,0-0.2,0-0.4c0-0.2-0.1-0.1-0.2-0.1c-0.3-0.9-0.7-1.6-1.2-2.1c0.1,0,0-0.1,0-0.1
				c0.2-0.1,0.3-0.1,0.4,0c0.5,0.7,0.9,1.4,1.5,2.1C529.5,702.3,529.8,702.7,529.5,702.8z"/>
			<path class="st1" d="M525.8,694.4c0-0.1,0-0.2,0.1-0.3C525.9,694.3,525.9,694.3,525.8,694.4z"/>
			<path class="st1" d="M516.8,698.1c-0.1-0.1-0.3-0.4-0.2-0.5c-0.2-0.1-0.4-0.3-0.6-0.6c0.1-0.1,0.1-0.1,0.2-0.2
				C516.6,697,517.5,697.6,516.8,698.1z"/>
			<path class="st1" d="M520.8,687.6c0,0.2-0.2-0.1-0.1,0.1c-0.1,0-0.1-0.2,0-0.2C520.7,687.4,520.7,687.6,520.8,687.6z"/>
			<path class="st1" d="M519.1,683.2c-0.1,0.1-0.2,0.1-0.2,0C519,683.1,519.1,683.1,519.1,683.2z"/>
			<path class="st1" d="M515,678c0-0.3-0.2-0.1-0.1-0.4c-0.3-0.3-0.4-0.9-0.7-1.3c-0.1-0.2-0.3-0.3-0.5-0.5
				c-0.5-0.7-0.9-1.6-1.3-2.4c-0.2-0.5-0.5-0.9-0.6-1.3c0.7,0,0.9,1,1.1,1.5c0.1,0.1,0.2,0.1,0.3,0.2c0.6,1.4,1.7,2.1,1.7,3.4
				c0.2,0.1,0.2,0.3,0.4,0.5c0,0,0,0.1,0,0.1C515.2,678,515.1,678,515,678z"/>
			<path class="st1" d="M511.5,673.7c-0.1-0.1-0.3-0.3-0.1-0.4c-0.2-0.1-0.1-0.3-0.2-0.5c-0.1-1.2-0.9-2.4-1.3-3.8
				c0.1-0.1,0.2,0,0.3,0c0.1,0.6,0.6,0.8,0.7,1.3c0.5,0.5,0.5,1.4,0.7,2.1c-0.1,0.3,0.1,0.8,0.3,1.1
				C511.8,673.7,511.6,673.7,511.5,673.7z"/>
			<path class="st1" d="M509.6,670.3c0,0-0.1,0-0.1,0.1c-0.2-0.3-0.2-0.6-0.5-0.9c0.2,0,0.3,0.1,0.4,0.2
				C509.6,669.9,509.7,670.1,509.6,670.3z"/>
			<path class="st1" d="M510,668.9c-0.2,0.1-0.3-0.3-0.3-0.4C509.9,668.6,509.8,668.8,510,668.9z"/>
			<path class="st1" d="M506.5,661.6c-0.2,0-0.6-0.1-0.4-0.3c-0.4-0.2-0.5-0.7-0.9-1.1c0.2,0,0-0.3-0.1-0.3c-0.1,0.1,0.2,0.1,0,0.1
				c-0.2-0.3-0.3-0.6-0.5-0.7c0.1,0,0.1,0,0.1,0c0,0,0-0.1,0-0.1c0.1,0,0.2,0.3,0.1,0.2c0,0.1,0.1,0.1,0.1,0.1
				c0-0.2,0.2-0.1,0.1-0.3c0.1,0,0.1,0.1,0.1,0.1c0,0.1-0.1,0.1-0.1,0.2c0.1,0.1,0.3,0.5,0.4,0.3c0.2,0.1,0,0.6,0.3,0.6
				C505.8,660.9,506.2,661,506.5,661.6z"/>
			<path class="st1" d="M504.6,659.2c0-0.1,0-0.2,0.1-0.2C504.8,659.1,504.7,659.1,504.6,659.2z"/>
			<path class="st1" d="M504.4,659c-0.1-0.1,0-0.1,0-0.2C504.5,658.7,504.5,658.9,504.4,659z"/>
			<path class="st1" d="M504.4,658.4c-0.1,0.1-0.1-0.2-0.2-0.3C504.2,658,504.3,658.2,504.4,658.4z"/>
			<path class="st1" d="M504,657.9c-0.1,0-0.2,0-0.3-0.1C503.9,657.7,503.9,657.8,504,657.9z"/>
			<path class="st1" d="M503.5,653.3c0-0.1,0-0.2,0.1-0.3C503.6,653.1,503.7,653.3,503.5,653.3z"/>
			<path class="st1" d="M500.3,663.3c0.1,0.4,0.1,0.7,0.4,0.9c0.2,0.7,0.4,1.6,0.9,2.2c0,0.3,0.2,0.5,0.3,0.8
				c0.3,1.3,1.3,2.3,2.3,3.2c0,0.1,0.1,0.2,0.1,0.2c0.3,0.3,0.7,0.5,0.9,0.9c0.6,0.7,0.9,1.7,1.2,2.6c-0.1,0-0.1,0.1-0.1,0.1
				c0.2,0.9,0.2,1.9,0.6,2.7c0.1,0.2,0.3,0.3,0.3,0.6c0.2,0.2,0.4,0.4,0.6,0.6c0.1,0.5,0.6,1.3,1.1,1.5c0,0.3,0.3,0.5,0.5,0.8
				c0.9,1.5,1.9,3.6,2.8,5.2c0.2,0.1,0.2,0.2,0.4,0.4c0.1,0.5,0.6,1.3,1,1.7c0,0.4,0.3,0.7,0.4,1.2c0.1,0.3,0,0.7,0.3,0.9
				c0.3,0.7,0.8,1.4,1,2.3c0.1,0.4,0,0.8,0.1,1.1c0.3,0.4,0.4,0.9,0.7,1.3c0,0,0.1-0.1,0.1,0c0.1,0.3,0.6,0.6,0.6,1
				c0.5,0.4,1.2,0.7,1.6,1.7c0.6,0.2,0.8,1,1.2,1.4c0.1,0.4,0.4,1.1,0.2,1.5c0.1,0.3,0.1,0.5,0.3,0.8c0,0.1-0.1,0.2,0,0.3
				c0.1,0,0.2,0.1,0.2,0.2c0,0.6,0.5,1.5,0.9,2c-0.1,0.1,0.2,0.2,0.1,0.4c0.7,1,1.7,1.9,1.8,3.2c-0.4,0.4-0.4,0.8-0.9,1.1
				c0,0.1,0,0.3-0.1,0.4c-0.1,0-0.1,0.1-0.2,0.2c0,0.4,0,1.2,0.5,1.4c0.4,0,0.9,0,1.1-0.4c0.8-0.3,1.4-1.2,2-0.4
				c0.4,0,0.7,0,1.1-0.3c0.1-0.3,0.4-0.6,0.4-1c0.1,0,0.1,0,0.2-0.1c0-0.2-0.2-0.4-0.1-0.5c0.1,0.4,0.5,0.3,0.6,0.6
				c0.5,0.1,1-0.3,1.4-0.2c0,0.1,0,0.1,0.1,0.2c0.3-0.1,0.3-0.2,0.5-0.1c0.1-0.1,0-0.2,0-0.4c0.3-0.3,0.3-0.7,0.3-1.1
				c-0.5-0.9-0.3-1.8-0.8-2.5c0.2-0.1,0-0.4-0.1-0.5c0.1-0.1,0.3-0.2,0.3-0.3c-0.1,0-0.1,0.1-0.2,0.2c-0.1-0.1-0.4-0.4-0.3-0.5
				c-0.3-0.1-0.5-0.6-0.8-0.8c0.1-0.2,0.1-0.4,0-0.7c-0.1,0.1-0.2,0-0.3,0c-0.5-0.6-0.3-1.2-0.9-1.7c0-0.2-0.1-0.5-0.3-0.8
				c0.1-0.9-0.4-2-1.2-2.8c0.2-0.4-0.2-0.7-0.3-1.1c-0.1-0.6,0-1.2-0.5-1.6c0-0.1-0.1,0-0.1,0c-0.2-0.4-0.5-0.8-0.7-1.2
				c-0.2-0.3-0.2-0.7-0.4-0.9c-0.3-0.3-0.5-0.5-1-0.5c-0.1-0.3-0.7-0.4-0.6-0.7c-0.1,0-0.2,0-0.2-0.1c0-0.1,0-0.1,0-0.1
				c-0.1,0.1-0.1,0.1-0.2,0.1c0.2,0.2,0.2,0.3,0.4,0.4c0,0.1,0,0.1,0,0.2c0.4,0.3,0.9,0.6,1.3,1c0.4,0.4,0.5,1,0.9,1.3
				c0,0.1-0.1,0.1-0.1,0.2c0.2,0.1,0.1,0.4,0.3,0.6c0.1,0.1,0.3,0.2,0.4,0.4c0.2,0.3,0.1,0.7,0.4,1.1c-0.2,0.3,0.2,0.6,0,0.8
				c-0.2,0,0-0.3-0.2-0.4c0,0.1,0,0.2-0.1,0.2c-0.4-0.2-1-0.1-1.3-0.5c-0.2-0.4-0.4-0.6-0.6-0.8c-0.4-1.3-1.4-3-2.3-4.1
				c0-0.4-0.2-0.6-0.4-0.9c0.3-0.7-0.9-1.4-0.8-1.9c-0.5,0-0.6-0.7-0.5-1c-0.3,0.1-0.3-0.3-0.3-0.5c0.1,0,0.2,0.1,0.1-0.1
				c0-0.1-0.1,0-0.1-0.1c0-0.1,0.1-0.2,0.2-0.3c0-0.1-0.1-0.1-0.2-0.3c0.1,0,0.2,0,0.3,0.1c0.1,0.2,0,0.3,0.1,0.4
				c0.1,0,0.1-0.1,0.2,0c-0.2,0.2,0.2,0.2,0,0.4c0-0.1-0.1-0.1-0.1-0.1c0.1,0.1,0.2,0.3,0.3,0.4c0,0,0-0.1,0-0.1
				c-0.2-1.5-1-2.5-1.7-3.7c0.1-0.1,0-0.3,0-0.4c-0.3-0.3-0.4-0.6-0.8-0.5c0.2,0.4,0.5,0.7,0.8,1.4c0,0.2-0.1,0.4-0.3,0.5
				c-0.4-0.5-0.5-1.2-0.8-1.7c-0.1-0.1-0.1-0.1-0.2-0.1c-0.2-0.4-0.3-0.7-0.4-1c-0.2-0.6-0.6-1.2-0.8-1.8c-0.1-0.1,0.1-0.3-0.2-0.4
				c0.1,0.4,0.2,0.7,0.4,0.9c0,0.4,0.3,1,0.5,1.4c0.1,0.9,0.6,1.4,0.9,2.4c-0.2,0.1-0.1,0.2,0,0.4c-0.2,0.1-0.2,0.3-0.2,0.4
				c0.1,0.1,0.1-0.1,0.2-0.1c0,0.1,0,0.3-0.2,0.4c0-0.1-0.1-0.2-0.1-0.3c-0.2,0.1,0,0.3-0.2,0.4c-0.4-0.7-1.1-1.1-1.3-1.9
				c0.1-0.1,0.2-0.3,0.2-0.4c-0.2,0-0.1,0.3-0.3,0.4c-0.2-0.2-0.4-0.5-0.6-0.6c0-0.1,0.1-0.1,0.1-0.2c-0.2-0.7-0.7-1.1-1-1.5
				c-0.5-0.7-0.7-1.5-1.3-2.3c0-0.1,0.2-0.1,0.1-0.2c-0.2-0.6-0.7-1.2-0.4-1.8c-0.1-0.2,0-0.3-0.1-0.5c-0.1-0.1-0.1-0.1-0.2-0.2
				c0.1-0.1-0.1-0.3-0.2-0.5c-0.1-0.2,0-0.5,0-0.7c-0.1-0.4-0.3-0.5-0.4-0.6c-0.2-0.2-0.4-0.4-0.7-0.5c0,0.1,0,0.2-0.1,0.3
				c0.3,0.2,0.7,0.3,0.8,0.6c0.1,0.2-0.1,0.4,0.1,0.6c0,0-0.1,0-0.1,0.1c0.7,1,0,2,0.7,3c0,0.4-0.1,0.7-0.2,1
				c-0.1-0.4-0.4-0.4-0.6-0.8c-1-0.6-1.2-2.1-1.9-3c-0.2-0.9-0.8-1.4-1.2-2.1c0.2-0.2-0.1-0.5-0.1-0.8c-0.1-0.1-0.2,0.1-0.2-0.1
				c-0.2-0.5,0.3-0.9,0.2-1.3c0-0.1-0.1-0.2-0.2-0.3c-0.1-0.1-0.1-0.4-0.2-0.5c-0.2-0.4-0.7-0.6-0.9-1c-0.3-0.6-0.6-1.3-0.9-2
				c0-0.7-0.7-1.4-0.9-2.1c-0.5-0.4-0.6-1.5-1.3-1.8c-0.1-0.1,0.1-0.1,0-0.2c-0.3-0.2-0.4-0.6-0.8-0.7c-0.1-0.1-0.1-0.1-0.1-0.2
				c-0.8-0.8-1.9-1.5-2.3-2.8c0.2-0.6,0.4-1.1,0.5-1.7c0.3-0.6,0.6-1.1,0.5-1.8c-0.5-0.5-1.4-0.7-1.9-0.8c-0.2-0.2-0.5-0.2-0.6-0.2
				c-0.5-0.5-0.8-0.8-1.2-1.4c-0.7-1.1-0.1-2.2-0.7-3.3c0-0.1,0.1-0.1,0-0.2c-0.3,0,0-0.5-0.4-0.4c-0.1,0.3-0.1,0.8,0.1,1.1
				c-0.1,0.2,0.1,0.4,0.1,0.6c0,0.3-0.1,0.6-0.1,0.8c0,0.1,0.1,0.1,0.1,0.1c0,0.2-0.1,0.4,0,0.6c0.2,0.5,0.3,0.6,0.6,1
				c0.6,0.8,1.1,1.6,2,1.5c0.2,0.3,0.7,0.2,1,0.3c0.2,0.3,0.3,0.2,0.4,0.6c-0.5,1.1-1.3,2.1-1.3,3.3c0.1,0.2,0.3,0.4,0.2,0.6
				c-1.1-0.7-1.4-3-2.5-3.8c-0.1,0.2,0.1,0.3,0.1,0.5c0.4,0.8,0.8,1.7,1.4,2.7c0.3,0.6,0.9,0.9,1.2,1.6c0.2,0.4,0.2,0.8,0.4,1.2
				c0,0,0,0.1-0.1,0.1c0.3,0.5-0.1,1.2,0.4,1.5C500.3,663.3,500.3,663.2,500.3,663.3z M526.3,708.2
				C526.3,708.2,526.3,708.1,526.3,708.2c0.1-0.1,0.1-0.1,0.1-0.2c0.1,0,0.1,0.1,0.2,0.1c0-0.1,0-0.2,0-0.3
				C526.8,708,526.5,708.3,526.3,708.2z M526.3,705.4c0.3-0.2,0.6,0.3,0.6,0.4c0,0.1-0.1,0.4-0.2,0.3
				C526.5,706,526.5,705.5,526.3,705.4z M525.3,704.6c-0.1,0.1-0.1,0.1-0.2,0.1c0.1-0.3-0.2-0.7,0-1
				C525.2,704.1,525.1,704.2,525.3,704.6z M525.3,703.2c-0.1,0.1-0.1,0-0.2,0c0-0.1,0-0.2,0.1-0.3
				C525.3,703,525.2,703.1,525.3,703.2z M524.4,703.5c-0.1-0.5-0.2-1-0.4-1.4c-0.2-0.4-0.7-0.6-0.8-1c0.4,0.2,0.7,0.8,1.1,1
				c0.1,0.4,0.1,0.9,0.4,1.1C524.5,703.3,524.6,703.4,524.4,703.5z M525.2,702.8c0,0-0.1,0-0.1,0.1c-0.1-0.1-0.3-0.4-0.1-0.5
				C525.1,702.5,525.1,702.6,525.2,702.8z M525,702.3c0,0-0.1,0-0.2,0C524.8,702.2,525,702.1,525,702.3z M525.7,701.9
				c0.1-0.1-0.1-0.2-0.1-0.3c0-0.2,0.1-0.3,0-0.5c-0.1-0.2-0.3-0.2-0.4-0.5c0-0.1-0.2,0-0.2,0c-0.9-1.2-1.7-2.4-2.1-4.1
				c0.4-0.1,0.5,0.4,1,0.1c0.6,0.8,0.6,1.5,1.3,2.1c0.2,0.5,0.3,1,0.6,1.5C526,700.8,526.3,701.4,525.7,701.9z M525.5,698.9
				c-0.1-0.1,0.1-0.2,0.1-0.2c-0.1-0.2-0.1-0.4-0.1-0.6c-0.1-0.4-0.8-1-0.6-1.4c0,0.3,0.5,0.2,0.5,0.5c0.6,0.1,1,0.3,1.2,1.1
				c0,0.2-0.1,0.4,0,0.6c0.1,0.3,0.3,0.5,0.2,0.8C526.2,699.8,526,699,525.5,698.9z M523.1,701c-0.1,0-0.1-0.1-0.2-0.2
				C523,700.7,523,700.9,523.1,701z M520.2,695.9c-0.3-0.5-0.6-0.9-0.8-1.4c-0.2-0.5-0.1-0.9-0.4-1.5c-0.1-0.2-0.3-0.2-0.5-0.5
				c-0.2-0.3-0.2-0.7-0.6-0.7c-0.1-0.4-0.2-0.8-0.5-0.9c0.3-0.1,0.8,0.2,1.1,0.4c0.7,1.6,1.7,2.9,1.7,4.6
				C520.2,695.8,520.2,695.8,520.2,695.9z M516.4,688.9c-0.1,0-0.1-0.1-0.1-0.1c-0.1-0.4-0.4-0.6-0.5-0.9c-0.1-0.1,0-0.3-0.1-0.5
				c-0.1-0.2-0.4-0.4-0.2-0.6c-0.3-0.1-0.3-0.6-0.6-0.7c0.2-0.1,0.5,0.2,0.6-0.1c-0.1-0.1-0.3,0-0.4,0c-0.1-0.2-0.1-0.4,0.1-0.5
				c0.4,0.2,0.9,1,0.9,1.5c0.3,0.2,0.3,0.5,0.3,0.8c0.1,0,0-0.1,0-0.1c0.3,0.2-0.1,0.9,0.2,1.2C516.5,688.8,516.3,688.8,516.4,688.9
				z M514.8,685.4c0-0.1,0-0.2,0-0.2c0.1,0,0.2,0,0.3,0.1C515.1,685.4,514.9,685.4,514.8,685.4z M512.2,684.4
				c-0.3-0.5-0.6-1-0.9-1.5c-0.4-0.7-0.7-1.7-1.3-2.3c-0.1-0.3-0.2-1-0.6-1c-0.2-0.6-0.7-1-1-1.4c-0.2-0.7-0.9-1.3-1-2.1
				c0-0.2,0.1-0.4,0-0.6c0-0.2-0.2-0.3-0.2-0.5c-0.1-0.3,0-0.6-0.1-0.9c0-0.1-0.2-0.2-0.2-0.4c0-0.1,0.1-0.2,0.1-0.2
				c0-0.2-0.2-0.4-0.2-0.7c-0.4-0.5-0.6-1.1-1.1-1.7c0.4,0.2,0.7,0.5,1.2,0.3c0.2,0.3,0.4,0.7,0.5,1c0.1,0.3,0.1,0.4,0.3,0.8
				c0.1,0.2,0.3,0.3,0.4,0.5c0.3,0.4,0.4,1,0.6,1.4c0.2,0.4,0.5,0.7,0.5,1.1c0.4,0.6,0.5,1.5,1.1,1.8c0.1,0.5,0.5,0.9,0.7,1.2
				c-0.2,0.5-0.3,1.2,0.1,1.8c0.4,0.5,1.1,0.5,1.5,0.8c0,0.3,0.2,0.3,0.3,0.6c0.1,0.4,0.1,0.9,0.5,1.3c-0.4,0.1-0.7,0.3-1,0.3
				C512.3,684.1,512.4,684.3,512.2,684.4z M505.6,670.8c-0.1,0-0.2,0-0.3,0.1c0-0.3-0.3-0.4-0.5-0.5c-0.3-0.5-0.7-0.8-1-1.3
				c0-0.1,0-0.2,0-0.4c-0.2-0.4-0.3-0.8-0.5-1.1c-0.2-0.4-0.5-0.7-0.6-1.1c-0.2-0.4-0.1-0.9-0.5-1.1c-0.1-0.4-0.2-1-0.5-1.3
				c0-0.4-0.3-0.9-0.4-1.4c-0.5-0.7-1.3-1-1.4-2.1c0.4,0.2,0.5,0.8,0.8,0.9c0.1,0.4,0.5,0.5,0.7,0.7c0.2,0.2,0.3,0.4,0.5,0.6
				c0.2,0.2,0.4,0.3,0.7,0.7c0.1,0.2,0.2,0.3,0.2,0.5c0.2,0.4,0.2,0.9,0.4,1.2c0,0.1,0.2,0.1,0.2,0.2c0.1,0.2,0,0.5,0.1,0.7
				c0,0,0.1,0.1,0.2,0.1c0,0.1,0,0.3,0,0.4c0.2,0.8,0.7,1.7,1.1,2.5c0.1,0.2,0.1,0.4,0.2,0.5c0.1,0.1,0.2,0.2,0.3,0.3
				C505.5,670.3,505.4,670.6,505.6,670.8z M500.4,663c0-0.1-0.1,0-0.1-0.1C500.5,662.8,500.6,663,500.4,663z"/>
			<path class="st1" d="M521.2,688.7c0.1,0.1,0.1,0.1,0.2,0.1c0,0.2,0.4,0.4,0.2,0.7c-0.3-0.5-0.5-0.9-0.7-1.3
				C521.1,688.2,521.3,688.7,521.2,688.7z"/>
			<path class="st1" d="M520.9,687.8c0.1,0.1,0.2,0.1,0.2,0.2c-0.1,0-0.2-0.1-0.4-0.1C520.7,687.7,520.8,687.9,520.9,687.8z"/>
			<path class="st1" d="M505,659.2c-0.3-0.1-0.4-0.6-0.6-0.7C504.7,658.6,504.8,658.9,505,659.2z"/>
		</g>
	</g>
</g>
<g>
	<path class="st2" d="M345.1,184.3c-7.3,7-18.4,14.7-32.9,22.9c-29.4,16.7-70.1,34-114.6,48.7c-44.5,14.7-87.4,25.1-121,29.3
		c-16.6,2.1-30.1,2.5-40.1,1.3c-5.5-0.7-9.9-1.8-13.3-3.5l95.4,288c6,18.2,84.9,8.4,176.2-21.8s160.4-69.5,154.4-87.7l-95.4-288
		C352,176.9,349.1,180.5,345.1,184.3z"/>
	<path class="st2" d="M350.2,163c-0.1-0.1-0.1-0.3-0.2-0.4c-0.1-0.1-0.1-0.3-0.2-0.4c-0.1-0.1-0.1-0.3-0.2-0.4
		c-0.1-0.1-0.2-0.3-0.3-0.4c-0.1-0.1-0.2-0.2-0.3-0.4c-0.1-0.1-0.2-0.2-0.3-0.4c-0.1-0.1-0.2-0.2-0.3-0.3c-0.1-0.1-0.3-0.2-0.4-0.3
		c-0.1-0.1-0.2-0.2-0.4-0.3c-0.1-0.1-0.3-0.2-0.4-0.3c-0.1-0.1-0.3-0.2-0.4-0.3c-0.2-0.1-0.3-0.2-0.5-0.3c-0.2-0.1-0.3-0.2-0.5-0.3
		c-0.2-0.1-0.4-0.2-0.5-0.3c-0.2-0.1-0.3-0.2-0.5-0.3c-0.2-0.1-0.4-0.2-0.6-0.3c-0.2-0.1-0.4-0.2-0.6-0.2c-0.2-0.1-0.4-0.2-0.6-0.2
		c-0.2-0.1-0.4-0.2-0.6-0.2c-0.2-0.1-0.4-0.1-0.7-0.2c-0.2-0.1-0.4-0.1-0.7-0.2c-0.2-0.1-0.5-0.1-0.7-0.2c-0.2-0.1-0.5-0.1-0.7-0.2
		c-0.3-0.1-0.5-0.1-0.8-0.2c-0.2-0.1-0.5-0.1-0.7-0.2c-0.3-0.1-0.5-0.1-0.8-0.2c-0.3-0.1-0.5-0.1-0.8-0.2c-0.3,0-0.6-0.1-0.9-0.1
		c-0.3,0-0.5-0.1-0.8-0.1c-0.3,0-0.6-0.1-0.9-0.1c-0.3,0-0.6-0.1-0.9-0.1c-0.3,0-0.6-0.1-1-0.1c-0.3,0-0.6-0.1-0.9-0.1
		c-0.3,0-0.7-0.1-1-0.1c-0.3,0-0.6-0.1-0.9-0.1c-0.3,0-0.7,0-1-0.1c-0.3,0-0.6,0-1-0.1c-0.4,0-0.7,0-1.1,0c-0.3,0-0.7,0-1,0
		c-0.4,0-0.7,0-1.1,0c-0.4,0-0.7,0-1.1,0c-0.4,0-0.8,0-1.2,0c-0.4,0-0.7,0-1.1,0c-0.4,0-0.8,0-1.2,0c-0.4,0-0.7,0-1.1,0
		c-0.4,0-0.8,0-1.2,0c-0.4,0-0.8,0-1.2,0c-0.4,0-0.8,0-1.3,0.1c-0.4,0-0.8,0-1.2,0.1c-0.4,0-0.9,0-1.3,0.1c-0.4,0-0.8,0-1.2,0.1
		c-0.4,0-0.9,0.1-1.3,0.1c-0.4,0-0.9,0.1-1.3,0.1c-0.4,0-0.9,0.1-1.4,0.1c-0.4,0-0.9,0.1-1.3,0.1c-0.5,0-0.9,0.1-1.4,0.1
		c-0.4,0-0.9,0.1-1.3,0.1c-0.5,0-1,0.1-1.5,0.1c-0.5,0-0.9,0.1-1.4,0.1c-0.5,0.1-1,0.1-1.5,0.2c-0.5,0.1-0.9,0.1-1.4,0.2
		c-0.5,0.1-1,0.1-1.5,0.2c-0.5,0.1-1,0.1-1.4,0.2c-0.5,0.1-1,0.1-1.6,0.2c-0.5,0.1-1,0.1-1.5,0.2c-0.5,0.1-1.1,0.1-1.6,0.2
		c-0.5,0.1-1,0.1-1.5,0.2c-0.5,0.1-1.1,0.2-1.6,0.2c-0.5,0.1-1,0.1-1.5,0.2c-0.6,0.1-1.1,0.2-1.7,0.3c-0.5,0.1-1,0.2-1.5,0.2
		c-0.6,0.1-1.1,0.2-1.7,0.3c-0.5,0.1-1,0.2-1.6,0.3c-0.6,0.1-1.2,0.2-1.7,0.3c-0.5,0.1-1,0.2-1.6,0.3c-0.6,0.1-1.2,0.2-1.7,0.3
		c-0.5,0.1-1.1,0.2-1.6,0.3c-0.6,0.1-1.2,0.2-1.7,0.3c-0.6,0.1-1.1,0.2-1.7,0.3c-0.6,0.1-1.2,0.2-1.8,0.3c-0.6,0.1-1.1,0.2-1.7,0.3
		c-0.6,0.1-1.2,0.2-1.9,0.4c-0.6,0.1-1.1,0.2-1.7,0.3c-0.6,0.1-1.3,0.3-1.9,0.4c-0.6,0.1-1.1,0.2-1.7,0.3c-0.6,0.1-1.3,0.3-1.9,0.4
		c-0.6,0.1-1.2,0.2-1.7,0.4c-0.6,0.1-1.2,0.3-1.9,0.4c-0.6,0.1-1.2,0.3-1.8,0.4c-0.6,0.1-1.3,0.3-1.9,0.4c-0.6,0.1-1.2,0.3-1.8,0.4
		c-0.6,0.1-1.3,0.3-1.9,0.4c-0.6,0.1-1.2,0.3-1.8,0.4c-0.7,0.2-1.3,0.3-2,0.5c-0.6,0.1-1.2,0.3-1.8,0.4c-0.7,0.2-1.4,0.3-2,0.5
		c-0.6,0.1-1.2,0.3-1.8,0.4c-0.7,0.2-1.3,0.3-2,0.5c-0.6,0.2-1.2,0.3-1.9,0.5c-0.7,0.2-1.3,0.3-2,0.5c-0.6,0.2-1.3,0.3-1.9,0.5
		c-0.7,0.2-1.3,0.3-2,0.5c-0.7,0.2-1.3,0.3-2,0.5c-0.7,0.2-1.4,0.4-2.1,0.6c-0.6,0.2-1.2,0.3-1.9,0.5c-0.7,0.2-1.4,0.4-2.2,0.6
		c-0.6,0.2-1.2,0.3-1.9,0.5c-0.7,0.2-1.4,0.4-2,0.6c-0.7,0.2-1.3,0.4-2,0.6c-0.7,0.2-1.3,0.4-2,0.6c-0.7,0.2-1.4,0.4-2.1,0.6
		c-0.7,0.2-1.4,0.4-2.1,0.6c-0.7,0.2-1.3,0.4-2,0.6c-0.8,0.2-1.5,0.4-2.3,0.7c-0.6,0.2-1.2,0.4-1.9,0.5c-0.8,0.2-1.5,0.5-2.3,0.7
		c-0.6,0.2-1.2,0.4-1.9,0.6c-0.7,0.2-1.4,0.4-2.1,0.6c-0.7,0.2-1.4,0.4-2.1,0.6c-0.8,0.2-1.5,0.5-2.3,0.7c-0.6,0.2-1.3,0.4-1.9,0.6
		c-0.8,0.3-1.7,0.5-2.5,0.8c-0.6,0.2-1.1,0.4-1.7,0.5c-2.8,0.9-5.7,1.8-8.5,2.8c-1.4,0.5-2.8,0.9-4.3,1.4c-0.3,0.1-0.5,0.2-0.8,0.3
		c-1.1,0.4-2.3,0.8-3.4,1.2c-0.7,0.2-1.4,0.5-2,0.7c-0.7,0.2-1.4,0.5-2.2,0.7c-0.7,0.2-1.3,0.5-2,0.7c-0.7,0.3-1.4,0.5-2.2,0.8
		c-0.7,0.3-1.4,0.5-2.1,0.8c-0.7,0.2-1.3,0.5-2,0.7c-0.6,0.2-1.2,0.4-1.8,0.6c-0.8,0.3-1.5,0.6-2.3,0.8c-0.6,0.2-1.2,0.4-1.7,0.6
		c-0.8,0.3-1.5,0.6-2.3,0.8c-0.7,0.2-1.3,0.5-2,0.7c-0.7,0.2-1.3,0.5-2,0.7c-0.7,0.3-1.3,0.5-2,0.8c-0.7,0.2-1.3,0.5-2,0.7
		c-0.7,0.3-1.3,0.5-2,0.8c-0.6,0.2-1.3,0.5-1.9,0.7c-0.6,0.2-1.2,0.5-1.8,0.7c-0.7,0.3-1.4,0.5-2.1,0.8c-0.6,0.2-1.1,0.5-1.7,0.7
		c-0.7,0.3-1.4,0.6-2.1,0.8c-0.6,0.3-1.2,0.5-1.9,0.8c-0.6,0.3-1.3,0.5-1.9,0.8c-0.6,0.2-1.2,0.5-1.8,0.7c-0.6,0.3-1.3,0.5-1.9,0.8
		c-0.6,0.2-1.1,0.5-1.7,0.7c-0.7,0.3-1.3,0.5-2,0.8c-0.6,0.2-1.1,0.5-1.7,0.7c-0.6,0.3-1.3,0.5-1.9,0.8c-0.6,0.3-1.2,0.5-1.8,0.8
		c-0.6,0.3-1.2,0.5-1.8,0.8c-0.6,0.2-1.1,0.5-1.7,0.7c-0.6,0.3-1.2,0.5-1.8,0.8c-0.6,0.2-1.1,0.5-1.7,0.7c-0.6,0.3-1.2,0.5-1.8,0.8
		c-0.6,0.3-1.1,0.5-1.7,0.8c-0.6,0.3-1.2,0.5-1.7,0.8c-0.6,0.3-1.1,0.5-1.7,0.8c-0.6,0.3-1.1,0.5-1.7,0.8c-0.5,0.2-1.1,0.5-1.6,0.7
		c-0.6,0.3-1.2,0.5-1.7,0.8c-0.5,0.2-1,0.5-1.5,0.7c-0.6,0.3-1.1,0.5-1.7,0.8c-0.5,0.3-1,0.5-1.6,0.8c-0.5,0.3-1.1,0.5-1.6,0.8
		c-0.5,0.3-1,0.5-1.6,0.8c-0.5,0.3-1,0.5-1.6,0.8c-0.5,0.3-1,0.5-1.5,0.8c-0.5,0.3-1,0.5-1.5,0.8c-0.5,0.2-1,0.5-1.5,0.7
		c-0.5,0.3-1,0.5-1.5,0.8c-0.5,0.2-1,0.5-1.4,0.7c-0.5,0.3-1,0.5-1.5,0.8c-0.5,0.2-0.9,0.5-1.4,0.7c-0.5,0.3-1,0.5-1.5,0.8
		c-0.5,0.2-0.9,0.5-1.4,0.7c-0.5,0.3-0.9,0.5-1.4,0.8c-0.5,0.2-0.9,0.5-1.3,0.7c-0.5,0.3-0.9,0.5-1.4,0.8c-0.4,0.2-0.8,0.5-1.3,0.7
		c-0.5,0.3-0.9,0.5-1.4,0.8c-0.4,0.2-0.9,0.5-1.3,0.7c-0.4,0.2-0.9,0.5-1.3,0.7c-0.4,0.2-0.8,0.5-1.2,0.7c-0.4,0.2-0.9,0.5-1.3,0.7
		c-0.4,0.2-0.8,0.5-1.2,0.7c-0.4,0.2-0.8,0.5-1.2,0.7c-0.4,0.2-0.8,0.5-1.2,0.7c-0.4,0.2-0.8,0.5-1.2,0.7c-0.4,0.2-0.8,0.5-1.1,0.7
		c-0.4,0.2-0.8,0.5-1.1,0.7c-0.4,0.2-0.7,0.5-1.1,0.7c-0.4,0.2-0.7,0.5-1.1,0.7c-0.4,0.2-0.7,0.5-1.1,0.7c-0.4,0.2-0.7,0.5-1.1,0.7
		c-0.3,0.2-0.7,0.5-1,0.7c-0.4,0.2-0.7,0.5-1,0.7c-0.3,0.2-0.6,0.4-1,0.7c-0.3,0.2-0.7,0.5-1,0.7c-0.3,0.2-0.6,0.4-0.9,0.7
		c-0.3,0.2-0.6,0.5-1,0.7c-0.3,0.2-0.6,0.4-0.9,0.7c-0.3,0.2-0.6,0.5-0.9,0.7c-0.3,0.2-0.6,0.4-0.8,0.7c-0.3,0.2-0.6,0.5-0.9,0.7
		c-0.3,0.2-0.5,0.4-0.8,0.7c-0.3,0.2-0.6,0.4-0.8,0.7c-0.3,0.2-0.5,0.4-0.8,0.6c-0.3,0.2-0.5,0.4-0.8,0.7c-0.2,0.2-0.5,0.4-0.7,0.6
		c-0.2,0.2-0.5,0.4-0.7,0.7c-0.2,0.2-0.5,0.4-0.7,0.6c-0.2,0.2-0.5,0.4-0.7,0.6c-0.2,0.2-0.4,0.4-0.6,0.6c-0.2,0.2-0.4,0.4-0.6,0.6
		c-0.2,0.2-0.4,0.4-0.6,0.6c-0.2,0.2-0.4,0.4-0.6,0.6c-0.2,0.2-0.4,0.4-0.6,0.6c-0.2,0.2-0.4,0.4-0.5,0.6c-0.2,0.2-0.3,0.4-0.5,0.6
		c-0.2,0.2-0.3,0.4-0.5,0.6c-0.2,0.2-0.3,0.4-0.5,0.6c-0.2,0.2-0.3,0.4-0.5,0.6c-0.1,0.2-0.3,0.4-0.4,0.6c-0.1,0.2-0.3,0.4-0.4,0.6
		c-0.1,0.2-0.2,0.4-0.4,0.6c-0.1,0.2-0.2,0.4-0.4,0.6c-0.1,0.2-0.2,0.4-0.3,0.5c-0.1,0.2-0.2,0.4-0.3,0.5c-0.1,0.2-0.2,0.4-0.3,0.5
		c-0.1,0.2-0.2,0.4-0.3,0.5c-0.1,0.2-0.1,0.3-0.2,0.5c-0.1,0.2-0.1,0.3-0.2,0.5c-0.1,0.2-0.1,0.3-0.2,0.5c-0.1,0.2-0.1,0.3-0.2,0.5
		c0,0.2-0.1,0.3-0.1,0.5c0,0.2-0.1,0.3-0.1,0.5c0,0.2,0,0.3-0.1,0.5c0,0.2,0,0.3,0,0.5c0,0.2,0,0.3,0,0.5c0,0.2,0,0.3,0,0.5
		c0,0.2,0,0.3,0,0.5c0,0.1,0,0.3,0.1,0.4c0,0.1,0.1,0.3,0.1,0.4c0,0.2,0.1,0.4,0.1,0.5c6,18.2,84.9,8.4,176.2-21.8
		s160.4-69.5,154.4-87.7C350.4,163.4,350.3,163.2,350.2,163z M188.3,227.8c-26.3,8.7-49.1,11.5-50.8,6.3
		c-1.7-5.2,18.2-16.6,44.5-25.3s49.1-11.5,50.8-6.3C234.6,207.7,214.6,219,188.3,227.8z"/>
	<path class="st2" d="M541.9,16.9C467.2,8.2,437.3,24.2,424.3,42c-16.6,22.7-9.6,53.7-37.4,82.7c-11.3,11.8-23.9,18.6-33.3,22.6
		c-5.5,1.7-11.1,3.5-16.6,5.2c3.4,0.4,8.2,1.5,12.5,4.9c4,3.2,5.8,7,8.6,12.8c0.5,1,0.9,2.1,1.4,3.2
		c29.1,87.9,58.1,175.8,87.2,263.7c8.5-2.9,21.5-8.3,34.4-18.8c33.7-27.6,30.8-61.1,52.2-83.7c14.4-15.3,43.3-29.2,107.8-18.8
		C607.9,216.2,574.9,116.5,541.9,16.9z"/>
</g>
<path class="st3" d="M435,263.2c8.5-2.9,21.5-8.3,34.4-18.8c33.7-27.6,30.8-61.1,52.2-83.7c14.4-15.3,43.3-29.2,107.8-18.8"/>
<path class="st3" d="M413.7,216.9c8.5-2.9,21.5-8.3,34.4-18.8c33.7-27.6,30.8-61.1,52.2-83.7c14.4-15.3,43.3-29.2,107.8-18.8"/>
<path class="st3" d="M392.4,170.5c8.5-2.9,21.5-8.3,34.4-18.8c33.7-27.6,30.8-61.1,52.2-83.7c14.4-15.3,43.3-29.2,107.8-18.8"/>
</svg>
