<?xml version="1.0" encoding="utf-8"?>
<!-- Generator: Adobe Illustrator 24.1.0, SVG Export Plug-In . SVG Version: 6.00 Build 0)  -->
<svg version="1.0" id="Layer_1" xmlns="http://www.w3.org/2000/svg" xmlns:xlink="http://www.w3.org/1999/xlink" x="0px" y="0px"
	 viewBox="0 0 644.3 585.4" style="enable-background:new 0 0 644.3 585.4;" xml:space="preserve">
<style type="text/css">
	.st0{fill:#FFFFFF;}
	.st1{fill:none;stroke:#D6565D;stroke-width:5;stroke-miterlimit:10;}
</style>
<g>
	<path class="st0" d="M338.2,178.6c-7.3,7-18.4,14.7-32.9,22.9c-29.4,16.7-70.1,34-114.6,48.7c-44.5,14.7-87.4,25.1-121,29.3
		c-16.6,2.1-30.1,2.5-40.1,1.3c-5.5-0.7-9.9-1.8-13.3-3.5l95.4,288c6,18.2,84.9,8.4,176.2-21.8s160.4-69.5,154.4-87.7l-95.4-288
		C345.1,171.2,342.2,174.8,338.2,178.6z"/>
	<path class="st0" d="M343.3,157.4c-0.1-0.1-0.1-0.3-0.2-0.4c-0.1-0.1-0.1-0.3-0.2-0.4c-0.1-0.1-0.1-0.3-0.2-0.4
		c-0.1-0.1-0.2-0.3-0.3-0.4c-0.1-0.1-0.2-0.2-0.3-0.4c-0.1-0.1-0.2-0.2-0.3-0.4c-0.1-0.1-0.2-0.2-0.3-0.3c-0.1-0.1-0.3-0.2-0.4-0.3
		c-0.1-0.1-0.2-0.2-0.4-0.3c-0.1-0.1-0.3-0.2-0.4-0.3c-0.1-0.1-0.3-0.2-0.4-0.3c-0.2-0.1-0.3-0.2-0.5-0.3c-0.2-0.1-0.3-0.2-0.5-0.3
		c-0.2-0.1-0.4-0.2-0.5-0.3c-0.2-0.1-0.3-0.2-0.5-0.3c-0.2-0.1-0.4-0.2-0.6-0.3c-0.2-0.1-0.4-0.2-0.6-0.2c-0.2-0.1-0.4-0.2-0.6-0.2
		c-0.2-0.1-0.4-0.2-0.6-0.2c-0.2-0.1-0.4-0.1-0.7-0.2c-0.2-0.1-0.4-0.1-0.7-0.2c-0.2-0.1-0.5-0.1-0.7-0.2c-0.2-0.1-0.5-0.1-0.7-0.2
		c-0.3-0.1-0.5-0.1-0.8-0.2c-0.2-0.1-0.5-0.1-0.7-0.2c-0.3-0.1-0.5-0.1-0.8-0.2c-0.3-0.1-0.5-0.1-0.8-0.2c-0.3,0-0.6-0.1-0.9-0.1
		c-0.3,0-0.5-0.1-0.8-0.1c-0.3,0-0.6-0.1-0.9-0.1c-0.3,0-0.6-0.1-0.9-0.1c-0.3,0-0.6-0.1-1-0.1c-0.3,0-0.6-0.1-0.9-0.1
		c-0.3,0-0.7-0.1-1-0.1c-0.3,0-0.6-0.1-0.9-0.1c-0.3,0-0.7,0-1-0.1c-0.3,0-0.6,0-1-0.1c-0.4,0-0.7,0-1.1,0c-0.3,0-0.7,0-1,0
		c-0.4,0-0.7,0-1.1,0c-0.4,0-0.7,0-1.1,0c-0.4,0-0.8,0-1.2,0c-0.4,0-0.7,0-1.1,0c-0.4,0-0.8,0-1.2,0c-0.4,0-0.7,0-1.1,0
		c-0.4,0-0.8,0-1.2,0c-0.4,0-0.8,0-1.2,0c-0.4,0-0.8,0-1.3,0.1c-0.4,0-0.8,0-1.2,0.1c-0.4,0-0.9,0-1.3,0.1c-0.4,0-0.8,0-1.2,0.1
		c-0.4,0-0.9,0.1-1.3,0.1c-0.4,0-0.9,0.1-1.3,0.1c-0.4,0-0.9,0.1-1.4,0.1c-0.4,0-0.9,0.1-1.3,0.1c-0.5,0-0.9,0.1-1.4,0.1
		c-0.4,0-0.9,0.1-1.3,0.1c-0.5,0-1,0.1-1.5,0.1c-0.5,0-0.9,0.1-1.4,0.1c-0.5,0.1-1,0.1-1.5,0.2c-0.5,0.1-0.9,0.1-1.4,0.2
		c-0.5,0.1-1,0.1-1.5,0.2c-0.5,0.1-1,0.1-1.4,0.2c-0.5,0.1-1,0.1-1.6,0.2c-0.5,0.1-1,0.1-1.5,0.2c-0.5,0.1-1.1,0.1-1.6,0.2
		c-0.5,0.1-1,0.1-1.5,0.2c-0.5,0.1-1.1,0.2-1.6,0.2c-0.5,0.1-1,0.1-1.5,0.2c-0.6,0.1-1.1,0.2-1.7,0.3c-0.5,0.1-1,0.2-1.5,0.2
		c-0.6,0.1-1.1,0.2-1.7,0.3c-0.5,0.1-1,0.2-1.6,0.3c-0.6,0.1-1.2,0.2-1.7,0.3c-0.5,0.1-1,0.2-1.6,0.3c-0.6,0.1-1.2,0.2-1.7,0.3
		c-0.5,0.1-1.1,0.2-1.6,0.3c-0.6,0.1-1.2,0.2-1.7,0.3c-0.6,0.1-1.1,0.2-1.7,0.3c-0.6,0.1-1.2,0.2-1.8,0.3c-0.6,0.1-1.1,0.2-1.7,0.3
		c-0.6,0.1-1.2,0.2-1.9,0.4c-0.6,0.1-1.1,0.2-1.7,0.3c-0.6,0.1-1.3,0.3-1.9,0.4c-0.6,0.1-1.1,0.2-1.7,0.3c-0.6,0.1-1.3,0.3-1.9,0.4
		c-0.6,0.1-1.2,0.2-1.7,0.4c-0.6,0.1-1.2,0.3-1.9,0.4c-0.6,0.1-1.2,0.3-1.8,0.4c-0.6,0.1-1.3,0.3-1.9,0.4c-0.6,0.1-1.2,0.3-1.8,0.4
		c-0.6,0.1-1.3,0.3-1.9,0.4c-0.6,0.1-1.2,0.3-1.8,0.4c-0.7,0.2-1.3,0.3-2,0.5c-0.6,0.1-1.2,0.3-1.8,0.4c-0.7,0.2-1.4,0.3-2,0.5
		c-0.6,0.1-1.2,0.3-1.8,0.4c-0.7,0.2-1.3,0.3-2,0.5c-0.6,0.2-1.2,0.3-1.9,0.5c-0.7,0.2-1.3,0.3-2,0.5c-0.6,0.2-1.3,0.3-1.9,0.5
		c-0.7,0.2-1.3,0.3-2,0.5c-0.7,0.2-1.3,0.3-2,0.5c-0.7,0.2-1.4,0.4-2.1,0.6c-0.6,0.2-1.2,0.3-1.9,0.5c-0.7,0.2-1.4,0.4-2.2,0.6
		c-0.6,0.2-1.2,0.3-1.9,0.5c-0.7,0.2-1.4,0.4-2,0.6c-0.7,0.2-1.3,0.4-2,0.6c-0.7,0.2-1.3,0.4-2,0.6c-0.7,0.2-1.4,0.4-2.1,0.6
		c-0.7,0.2-1.4,0.4-2.1,0.6c-0.7,0.2-1.3,0.4-2,0.6c-0.8,0.2-1.5,0.4-2.3,0.7c-0.6,0.2-1.2,0.4-1.9,0.5c-0.8,0.2-1.5,0.5-2.3,0.7
		c-0.6,0.2-1.2,0.4-1.9,0.6c-0.7,0.2-1.4,0.4-2.1,0.6c-0.7,0.2-1.4,0.4-2.1,0.6c-0.8,0.2-1.5,0.5-2.3,0.7c-0.6,0.2-1.3,0.4-1.9,0.6
		c-0.8,0.3-1.7,0.5-2.5,0.8c-0.6,0.2-1.1,0.4-1.7,0.5c-2.8,0.9-5.7,1.8-8.5,2.8c-1.4,0.5-2.8,0.9-4.3,1.4c-0.3,0.1-0.5,0.2-0.8,0.3
		c-1.1,0.4-2.3,0.8-3.4,1.2c-0.7,0.2-1.4,0.5-2,0.7c-0.7,0.2-1.4,0.5-2.2,0.7c-0.7,0.2-1.3,0.5-2,0.7c-0.7,0.3-1.4,0.5-2.2,0.8
		c-0.7,0.3-1.4,0.5-2.1,0.8c-0.7,0.2-1.3,0.5-2,0.7c-0.6,0.2-1.2,0.4-1.8,0.6c-0.8,0.3-1.5,0.6-2.3,0.8c-0.6,0.2-1.2,0.4-1.7,0.6
		c-0.8,0.3-1.5,0.6-2.3,0.8c-0.7,0.2-1.3,0.5-2,0.7c-0.7,0.2-1.3,0.5-2,0.7c-0.7,0.3-1.3,0.5-2,0.8c-0.7,0.2-1.3,0.5-2,0.7
		c-0.7,0.3-1.3,0.5-2,0.8c-0.6,0.2-1.3,0.5-1.9,0.7c-0.6,0.2-1.2,0.5-1.8,0.7c-0.7,0.3-1.4,0.5-2.1,0.8c-0.6,0.2-1.1,0.5-1.7,0.7
		c-0.7,0.3-1.4,0.6-2.1,0.8c-0.6,0.3-1.2,0.5-1.9,0.8c-0.6,0.3-1.3,0.5-1.9,0.8c-0.6,0.2-1.2,0.5-1.8,0.7c-0.6,0.3-1.3,0.5-1.9,0.8
		c-0.6,0.2-1.1,0.5-1.7,0.7c-0.7,0.3-1.3,0.5-2,0.8c-0.6,0.2-1.1,0.5-1.7,0.7c-0.6,0.3-1.3,0.5-1.9,0.8c-0.6,0.3-1.2,0.5-1.8,0.8
		c-0.6,0.3-1.2,0.5-1.8,0.8c-0.6,0.2-1.1,0.5-1.7,0.7c-0.6,0.3-1.2,0.5-1.8,0.8c-0.6,0.2-1.1,0.5-1.7,0.7c-0.6,0.3-1.2,0.5-1.8,0.8
		c-0.6,0.3-1.1,0.5-1.7,0.8c-0.6,0.3-1.2,0.5-1.7,0.8c-0.6,0.3-1.1,0.5-1.7,0.8c-0.6,0.3-1.1,0.5-1.7,0.8c-0.5,0.2-1.1,0.5-1.6,0.7
		c-0.6,0.3-1.2,0.5-1.7,0.8c-0.5,0.2-1,0.5-1.5,0.7c-0.6,0.3-1.1,0.5-1.7,0.8c-0.5,0.3-1,0.5-1.6,0.8c-0.5,0.3-1.1,0.5-1.6,0.8
		c-0.5,0.3-1,0.5-1.6,0.8c-0.5,0.3-1,0.5-1.6,0.8c-0.5,0.3-1,0.5-1.5,0.8c-0.5,0.3-1,0.5-1.5,0.8c-0.5,0.2-1,0.5-1.5,0.7
		c-0.5,0.3-1,0.5-1.5,0.8c-0.5,0.2-1,0.5-1.4,0.7c-0.5,0.3-1,0.5-1.5,0.8c-0.5,0.2-0.9,0.5-1.4,0.7c-0.5,0.3-1,0.5-1.5,0.8
		c-0.5,0.2-0.9,0.5-1.4,0.7c-0.5,0.3-0.9,0.5-1.4,0.8c-0.5,0.2-0.9,0.5-1.3,0.7c-0.5,0.3-0.9,0.5-1.4,0.8c-0.4,0.2-0.8,0.5-1.3,0.7
		c-0.5,0.3-0.9,0.5-1.4,0.8c-0.4,0.2-0.9,0.5-1.3,0.7c-0.4,0.2-0.9,0.5-1.3,0.7c-0.4,0.2-0.8,0.5-1.2,0.7c-0.4,0.2-0.9,0.5-1.3,0.7
		c-0.4,0.2-0.8,0.5-1.2,0.7c-0.4,0.2-0.8,0.5-1.2,0.7c-0.4,0.2-0.8,0.5-1.2,0.7c-0.4,0.2-0.8,0.5-1.2,0.7c-0.4,0.2-0.8,0.5-1.1,0.7
		c-0.4,0.2-0.8,0.5-1.1,0.7c-0.4,0.2-0.7,0.5-1.1,0.7c-0.4,0.2-0.7,0.5-1.1,0.7c-0.4,0.2-0.7,0.5-1.1,0.7c-0.4,0.2-0.7,0.5-1.1,0.7
		c-0.3,0.2-0.7,0.5-1,0.7c-0.4,0.2-0.7,0.5-1,0.7c-0.3,0.2-0.6,0.4-1,0.7c-0.3,0.2-0.7,0.5-1,0.7c-0.3,0.2-0.6,0.4-0.9,0.7
		c-0.3,0.2-0.6,0.5-1,0.7c-0.3,0.2-0.6,0.4-0.9,0.7c-0.3,0.2-0.6,0.5-0.9,0.7c-0.3,0.2-0.6,0.4-0.8,0.7c-0.3,0.2-0.6,0.5-0.9,0.7
		c-0.3,0.2-0.5,0.4-0.8,0.7c-0.3,0.2-0.6,0.4-0.8,0.7c-0.3,0.2-0.5,0.4-0.8,0.6c-0.3,0.2-0.5,0.4-0.8,0.7c-0.2,0.2-0.5,0.4-0.7,0.6
		c-0.2,0.2-0.5,0.4-0.7,0.7c-0.2,0.2-0.5,0.4-0.7,0.6c-0.2,0.2-0.5,0.4-0.7,0.6c-0.2,0.2-0.4,0.4-0.6,0.6c-0.2,0.2-0.4,0.4-0.6,0.6
		c-0.2,0.2-0.4,0.4-0.6,0.6c-0.2,0.2-0.4,0.4-0.6,0.6c-0.2,0.2-0.4,0.4-0.6,0.6c-0.2,0.2-0.4,0.4-0.5,0.6c-0.2,0.2-0.3,0.4-0.5,0.6
		c-0.2,0.2-0.3,0.4-0.5,0.6c-0.2,0.2-0.3,0.4-0.5,0.6c-0.2,0.2-0.3,0.4-0.5,0.6c-0.1,0.2-0.3,0.4-0.4,0.6c-0.1,0.2-0.3,0.4-0.4,0.6
		c-0.1,0.2-0.2,0.4-0.4,0.6c-0.1,0.2-0.2,0.4-0.4,0.6c-0.1,0.2-0.2,0.4-0.3,0.5c-0.1,0.2-0.2,0.4-0.3,0.5c-0.1,0.2-0.2,0.4-0.3,0.5
		c-0.1,0.2-0.2,0.4-0.3,0.5c-0.1,0.2-0.1,0.3-0.2,0.5c-0.1,0.2-0.1,0.3-0.2,0.5c-0.1,0.2-0.1,0.3-0.2,0.5c-0.1,0.2-0.1,0.3-0.2,0.5
		c0,0.2-0.1,0.3-0.1,0.5c0,0.2-0.1,0.3-0.1,0.5c0,0.2,0,0.3-0.1,0.5c0,0.2,0,0.3,0,0.5c0,0.2,0,0.3,0,0.5c0,0.2,0,0.3,0,0.5
		c0,0.2,0,0.3,0,0.5c0,0.1,0,0.3,0.1,0.4c0,0.1,0.1,0.3,0.1,0.4c0,0.2,0.1,0.4,0.1,0.5c6,18.2,84.9,8.4,176.2-21.8
		s160.4-69.5,154.4-87.7C343.4,157.7,343.4,157.5,343.3,157.4z M181.3,222.1c-26.3,8.7-49.1,11.5-50.8,6.3
		c-1.7-5.2,18.2-16.6,44.5-25.3s49.1-11.5,50.8-6.3S207.7,213.4,181.3,222.1z"/>
	<path class="st0" d="M535,11.2c-74.7-8.7-104.7,7.3-117.7,25.1c-16.6,22.7-9.6,53.7-37.4,82.7c-11.3,11.8-23.9,18.6-33.3,22.6
		c-5.5,1.7-11.1,3.5-16.6,5.2c3.4,0.4,8.2,1.5,12.5,4.9c4,3.2,5.8,7,8.6,12.8c0.5,1,0.9,2.1,1.4,3.2
		c29.1,87.9,58.1,175.8,87.2,263.7c8.5-2.9,21.5-8.3,34.4-18.8c33.7-27.6,30.8-61.1,52.2-83.7c14.4-15.3,43.3-29.2,107.8-18.8
		C601,210.5,568,110.9,535,11.2z"/>
</g>
<path class="st1" d="M428.1,257.5c8.5-2.9,21.5-8.3,34.4-18.8c33.7-27.6,30.8-61.1,52.2-83.7c14.4-15.3,43.3-29.2,107.8-18.8"/>
<path class="st1" d="M406.8,211.2c8.5-2.9,21.5-8.3,34.4-18.8c33.7-27.6,30.8-61.1,52.2-83.7c14.4-15.3,43.3-29.2,107.8-18.8"/>
<path class="st1" d="M385.4,164.9c8.5-2.9,21.5-8.3,34.4-18.8c33.7-27.6,30.8-61.1,52.2-83.7c14.4-15.3,43.3-29.2,107.8-18.8"/>
</svg>
