<?xml version="1.0" encoding="utf-8"?>
<!-- Generator: Adobe Illustrator 24.1.0, SVG Export Plug-In . SVG Version: 6.00 Build 0)  -->
<svg version="1.0" id="Layer_1" xmlns="http://www.w3.org/2000/svg" xmlns:xlink="http://www.w3.org/1999/xlink" x="0px" y="0px"
	 viewBox="0 0 582.4 278.4" style="enable-background:new 0 0 582.4 278.4;" xml:space="preserve">
<style type="text/css">
	.st0{fill:none;}
	.st1{fill:#FFFFFF;}
	.st2{fill:none;stroke:#D6565D;stroke-width:3;stroke-miterlimit:10;}
	.st3{fill:url(#brick);}
	.st4{fill:url(#SVGID_1_);}
	.st5{fill:none;stroke:#FFFFFF;stroke-width:3;stroke-miterlimit:10;}
	.st6{fill:none;stroke:#FFFFFF;stroke-width:2;stroke-miterlimit:10;}
	.st7{fill:url(#SVGID_2_);}
	.st8{fill:#D6565D;}
</style>
<pattern  x="41.7" y="-447" width="16" height="12" patternUnits="userSpaceOnUse" id="New_Pattern" viewBox="0.5 -12 16 12" style="overflow:visible;">
	<g>
		<rect x="0.5" y="-12" class="st0" width="16" height="12"/>
		<g>
			<circle class="st1" cx="4.7" cy="-2.1" r="0.9"/>
			<circle class="st1" cx="8.8" cy="-2.1" r="0.9"/>
			<circle class="st1" cx="12.9" cy="-2.1" r="0.9"/>
			<circle class="st1" cx="16.9" cy="-2.1" r="0.9"/>
		</g>
		<g>
			<circle class="st1" cx="0.9" cy="-2.1" r="0.9"/>
		</g>
		<g>
			<circle class="st1" cx="4.7" cy="-8.1" r="0.9"/>
			<circle class="st1" cx="8.8" cy="-8.1" r="0.9"/>
			<circle class="st1" cx="12.9" cy="-8.1" r="0.9"/>
			<circle class="st1" cx="16.9" cy="-8.1" r="0.9"/>
			<circle class="st1" cx="3.2" cy="-4.9" r="0.9"/>
			<circle class="st1" cx="7.2" cy="-4.9" r="0.9"/>
			<circle class="st1" cx="11.3" cy="-4.9" r="0.9"/>
			<circle class="st1" cx="15.4" cy="-4.9" r="0.9"/>
		</g>
		<g>
			<circle class="st1" cx="0.9" cy="-8.1" r="0.9"/>
		</g>
		<g>
			<circle class="st1" cx="3.2" cy="-10.9" r="0.9"/>
			<circle class="st1" cx="7.2" cy="-10.9" r="0.9"/>
			<circle class="st1" cx="11.3" cy="-10.9" r="0.9"/>
			<circle class="st1" cx="15.4" cy="-10.9" r="0.9"/>
		</g>
	</g>
</pattern>
<pattern  x="41.7" y="-447" width="134.5" height="126" patternUnits="userSpaceOnUse" id="brick" viewBox="35.1 -142.7 134.5 126" style="overflow:visible;">
	<g>
		<rect x="35.1" y="-142.7" class="st0" width="134.5" height="126"/>
		<g>
			<rect x="169.7" y="-16.7" class="st2" width="33.5" height="15.2"/>
			<rect x="169.7" y="-48.2" class="st2" width="33.5" height="15.2"/>
		</g>
		<g>
			<rect x="69" y="-16.7" class="st2" width="33.5" height="15.2"/>
			<rect x="102.5" y="-16.7" class="st2" width="33.5" height="15.2"/>
			<rect x="136" y="-16.7" class="st2" width="33.5" height="15.2"/>
			<rect x="35.2" y="-16.7" class="st2" width="33.5" height="15.2"/>
			<rect x="53" y="-32" class="st2" width="33.5" height="15.2"/>
			<rect x="86.5" y="-32" class="st2" width="33.5" height="15.2"/>
			<rect x="120" y="-32" class="st2" width="33.5" height="15.2"/>
			<rect x="69" y="-48.2" class="st2" width="33.5" height="15.2"/>
			<rect x="102.5" y="-48.2" class="st2" width="33.5" height="15.2"/>
			<rect x="136" y="-48.2" class="st2" width="33.5" height="15.2"/>
			<rect x="35.2" y="-48.2" class="st2" width="33.5" height="15.2"/>
		</g>
		<g>
			<rect x="1.5" y="-16.7" class="st2" width="33.5" height="15.2"/>
			<rect x="1.5" y="-48.2" class="st2" width="33.5" height="15.2"/>
		</g>
		<g>
			<rect x="169.7" y="-79.7" class="st2" width="33.5" height="15.2"/>
			<rect x="169.7" y="-111.2" class="st2" width="33.5" height="15.2"/>
		</g>
		<g>
			<rect x="53" y="-63.6" class="st2" width="33.5" height="15.2"/>
			<rect x="86.5" y="-63.6" class="st2" width="33.5" height="15.2"/>
			<rect x="120" y="-63.6" class="st2" width="33.5" height="15.2"/>
			<rect x="69" y="-79.7" class="st2" width="33.5" height="15.2"/>
			<rect x="102.5" y="-79.7" class="st2" width="33.5" height="15.2"/>
			<rect x="136" y="-79.7" class="st2" width="33.5" height="15.2"/>
			<rect x="35.2" y="-79.7" class="st2" width="33.5" height="15.2"/>
			<rect x="53" y="-95" class="st2" width="33.5" height="15.2"/>
			<rect x="86.5" y="-95" class="st2" width="33.5" height="15.2"/>
			<rect x="120" y="-95" class="st2" width="33.5" height="15.2"/>
			<rect x="69" y="-111.2" class="st2" width="33.5" height="15.2"/>
			<rect x="102.5" y="-111.2" class="st2" width="33.5" height="15.2"/>
			<rect x="136" y="-111.2" class="st2" width="33.5" height="15.2"/>
			<rect x="35.2" y="-111.2" class="st2" width="33.5" height="15.2"/>
		</g>
		<g>
			<rect x="1.5" y="-79.7" class="st2" width="33.5" height="15.2"/>
			<rect x="1.5" y="-111.2" class="st2" width="33.5" height="15.2"/>
		</g>
		<g>
			<rect x="169.7" y="-142.7" class="st2" width="33.5" height="15.2"/>
		</g>
		<g>
			<rect x="53" y="-126.6" class="st2" width="33.5" height="15.2"/>
			<rect x="86.5" y="-126.6" class="st2" width="33.5" height="15.2"/>
			<rect x="120" y="-126.6" class="st2" width="33.5" height="15.2"/>
			<rect x="69" y="-142.7" class="st2" width="33.5" height="15.2"/>
			<rect x="102.5" y="-142.7" class="st2" width="33.5" height="15.2"/>
			<rect x="136" y="-142.7" class="st2" width="33.5" height="15.2"/>
			<rect x="35.2" y="-142.7" class="st2" width="33.5" height="15.2"/>
			<rect x="53" y="-158" class="st2" width="33.5" height="15.2"/>
			<rect x="86.5" y="-158" class="st2" width="33.5" height="15.2"/>
			<rect x="120" y="-158" class="st2" width="33.5" height="15.2"/>
		</g>
		<g>
			<rect x="1.5" y="-142.7" class="st2" width="33.5" height="15.2"/>
		</g>
	</g>
</pattern>
<pattern  x="41.7" y="-447" width="66" height="64" patternUnits="userSpaceOnUse" id="sprinkles" viewBox="2.8 -70.7 66 64" style="overflow:visible;">
	<g>
		<rect x="2.8" y="-70.7" class="st0" width="66" height="64"/>
		<g>
			<path class="st1" d="M67.7-5.9c-0.5,1.3-1.1,2.7-1.6,4c-0.1,0.3,0,0.9,0.2,1.2c0.2,0.3,0.5,0.6,0.9,0.7C67.5,0,67.9,0,68.3-0.2
				c0.1-0.1,0.2-0.2,0.3-0.2c0.2-0.2,0.3-0.4,0.4-0.7c0.5-1.3,1.1-2.7,1.6-4c0.1-0.3,0-0.9-0.2-1.2c-0.2-0.3-0.5-0.6-0.9-0.7
				C69.1-7,68.7-7,68.3-6.8c-0.1,0.1-0.2,0.2-0.3,0.2C67.9-6.4,67.7-6.1,67.7-5.9L67.7-5.9z"/>
		</g>
		<g>
			<path class="st1" d="M49.1-19.8c-0.7,3.1-1.4,6.1-2.1,9.2c-0.2,0.8,0.2,1.7,1,1.8c0.8,0.2,1.7-0.2,1.8-1c0.7-3.1,1.4-6.1,2.1-9.2
				c0.2-0.8-0.2-1.7-1-1.8C50.2-21,49.3-20.6,49.1-19.8L49.1-19.8z"/>
			<path class="st1" d="M34.7-5.9c-0.5,1.3-1.1,2.7-1.6,4c-0.1,0.3,0,0.9,0.2,1.2c0.2,0.3,0.5,0.6,0.9,0.7C34.5,0,34.9,0,35.3-0.2
				c0.1-0.1,0.2-0.2,0.3-0.2c0.2-0.2,0.3-0.4,0.4-0.7c0.5-1.3,1.1-2.7,1.6-4c0.1-0.3,0-0.9-0.2-1.2c-0.2-0.3-0.5-0.6-0.9-0.7
				C36.1-7,35.7-7,35.3-6.8c-0.1,0.1-0.2,0.2-0.3,0.2C34.9-6.4,34.7-6.1,34.7-5.9L34.7-5.9z"/>
			<path class="st1" d="M41.5-16.3c0.1-2,0.3-4,0.4-6c0-0.8-0.7-1.5-1.5-1.5c-0.9,0-1.4,0.7-1.5,1.5c-0.1,2-0.3,4-0.4,6
				c0,0.8,0.7,1.5,1.5,1.5C40.9-14.8,41.5-15.4,41.5-16.3L41.5-16.3z"/>
			<path class="st1" d="M59.2-11.8c0.5-0.7,1.1-1.3,1.6-2c0.1-0.1,0.2-0.3,0.3-0.5c0.1-0.2,0.1-0.4,0.1-0.6c0-0.2,0-0.4-0.1-0.6
				c-0.1-0.2-0.2-0.3-0.3-0.5c-0.3-0.3-0.7-0.5-1.1-0.4c-0.1,0-0.3,0-0.4,0.1c-0.3,0.1-0.5,0.2-0.7,0.4c-0.5,0.7-1.1,1.3-1.6,2
				c-0.1,0.1-0.2,0.3-0.3,0.5c-0.1,0.2-0.1,0.4-0.1,0.6c0,0.2,0,0.4,0.1,0.6c0.1,0.2,0.2,0.3,0.3,0.5c0.3,0.3,0.7,0.5,1.1,0.4
				c0.1,0,0.3,0,0.4-0.1C58.8-11.5,59-11.6,59.2-11.8L59.2-11.8z"/>
		</g>
		<g>
			<path class="st1" d="M16.1-19.8c-0.7,3.1-1.4,6.1-2.1,9.2c-0.2,0.8,0.2,1.7,1,1.8c0.8,0.2,1.7-0.2,1.8-1c0.7-3.1,1.4-6.1,2.1-9.2
				c0.2-0.8-0.2-1.7-1-1.8C17.2-21,16.3-20.6,16.1-19.8L16.1-19.8z"/>
			<path class="st1" d="M1.7-5.9c-0.5,1.3-1.1,2.7-1.6,4C-0.1-1.6,0-1,0.2-0.7C0.4-0.4,0.8-0.1,1.1,0C1.5,0,1.9,0,2.3-0.2
				c0.1-0.1,0.2-0.2,0.3-0.2C2.8-0.6,2.9-0.8,3-1.1c0.5-1.3,1.1-2.7,1.6-4c0.1-0.3,0-0.9-0.2-1.2C4.2-6.6,3.9-6.9,3.5-6.9
				C3.1-7,2.7-7,2.3-6.8C2.2-6.7,2.1-6.6,2-6.6C1.9-6.4,1.7-6.1,1.7-5.9L1.7-5.9z"/>
			<path class="st1" d="M8.5-16.3c0.1-2,0.3-4,0.4-6c0-0.8-0.7-1.5-1.5-1.5c-0.9,0-1.4,0.7-1.5,1.5c-0.1,2-0.3,4-0.4,6
				c0,0.8,0.7,1.5,1.5,1.5C7.9-14.8,8.5-15.4,8.5-16.3L8.5-16.3z"/>
			<path class="st1" d="M26.2-11.8c0.5-0.7,1.1-1.3,1.6-2c0.1-0.1,0.2-0.3,0.3-0.5c0.1-0.2,0.1-0.4,0.1-0.6c0-0.2,0-0.4-0.1-0.6
				c-0.1-0.2-0.2-0.3-0.3-0.5c-0.3-0.3-0.7-0.5-1.1-0.4c-0.1,0-0.3,0-0.4,0.1c-0.3,0.1-0.5,0.2-0.7,0.4c-0.5,0.7-1.1,1.3-1.6,2
				c-0.1,0.1-0.2,0.3-0.3,0.5c-0.1,0.2-0.1,0.4-0.1,0.6c0,0.2,0,0.4,0.1,0.6c0.1,0.2,0.2,0.3,0.3,0.5c0.3,0.3,0.7,0.5,1.1,0.4
				c0.1,0,0.3,0,0.4-0.1C25.8-11.5,26-11.6,26.2-11.8L26.2-11.8z"/>
		</g>
		<g>
			<path class="st1" d="M65.6-51.8c-0.7,3.1-1.4,6.1-2.1,9.2c-0.2,0.8,0.2,1.7,1,1.8c0.8,0.2,1.7-0.2,1.8-1c0.7-3.1,1.4-6.1,2.1-9.2
				c0.2-0.8-0.2-1.7-1-1.8C66.7-53,65.8-52.6,65.6-51.8L65.6-51.8z"/>
			<path class="st1" d="M60.5-34c0,2.1,0,4.3,0,6.4c0,0.8,0.7,1.5,1.5,1.5c0.8,0,1.5-0.7,1.5-1.5c0-2.1,0-4.3,0-6.4
				c0-0.8-0.7-1.5-1.5-1.5C61.2-35.5,60.5-34.8,60.5-34L60.5-34z"/>
			<path class="st1" d="M51.2-37.9c-0.5,1.3-1.1,2.7-1.6,4c-0.1,0.3,0,0.9,0.2,1.2c0.2,0.3,0.5,0.6,0.9,0.7c0.4,0.1,0.8,0.1,1.2-0.2
				c0.1-0.1,0.2-0.2,0.3-0.2c0.2-0.2,0.3-0.4,0.4-0.7c0.5-1.3,1.1-2.7,1.6-4c0.1-0.3,0-0.9-0.2-1.2c-0.2-0.3-0.5-0.6-0.9-0.7
				c-0.4-0.1-0.8-0.1-1.2,0.2c-0.1,0.1-0.2,0.2-0.3,0.2C51.4-38.4,51.2-38.1,51.2-37.9L51.2-37.9z"/>
			<path class="st1" d="M58-48.3c0.1-2,0.3-4,0.4-6c0-0.8-0.7-1.5-1.5-1.5c-0.9,0-1.4,0.7-1.5,1.5c-0.1,2-0.3,4-0.4,6
				c0,0.8,0.7,1.5,1.5,1.5C57.4-46.8,58-47.4,58-48.3L58-48.3z"/>
		</g>
		<g>
			<path class="st1" d="M32.6-51.8c-0.7,3.1-1.4,6.1-2.1,9.2c-0.2,0.8,0.2,1.7,1,1.8c0.8,0.2,1.7-0.2,1.8-1c0.7-3.1,1.4-6.1,2.1-9.2
				c0.2-0.8-0.2-1.7-1-1.8C33.7-53,32.8-52.6,32.6-51.8L32.6-51.8z"/>
			<path class="st1" d="M27.5-34c0,2.1,0,4.3,0,6.4c0,0.8,0.7,1.5,1.5,1.5c0.8,0,1.5-0.7,1.5-1.5c0-2.1,0-4.3,0-6.4
				c0-0.8-0.7-1.5-1.5-1.5C28.2-35.5,27.5-34.8,27.5-34L27.5-34z"/>
			<path class="st1" d="M18.2-37.9c-0.5,1.3-1.1,2.7-1.6,4c-0.1,0.3,0,0.9,0.2,1.2c0.2,0.3,0.5,0.6,0.9,0.7c0.4,0.1,0.8,0.1,1.2-0.2
				c0.1-0.1,0.2-0.2,0.3-0.2c0.2-0.2,0.3-0.4,0.4-0.7c0.5-1.3,1.1-2.7,1.6-4c0.1-0.3,0-0.9-0.2-1.2c-0.2-0.3-0.5-0.6-0.9-0.7
				c-0.4-0.1-0.8-0.1-1.2,0.2c-0.1,0.1-0.2,0.2-0.3,0.2C18.4-38.4,18.2-38.1,18.2-37.9L18.2-37.9z"/>
			<path class="st1" d="M41.8-35.2c-0.5,1.3-1.1,2.7-1.6,4c-0.1,0.3,0,0.9,0.2,1.2c0.2,0.3,0.5,0.6,0.9,0.7c0.4,0.1,0.8,0.1,1.2-0.2
				c0.1-0.1,0.2-0.2,0.3-0.2c0.2-0.2,0.3-0.4,0.4-0.7c0.5-1.3,1.1-2.7,1.6-4c0.1-0.3,0-0.9-0.2-1.2c-0.2-0.3-0.5-0.6-0.9-0.7
				c-0.4-0.1-0.8-0.1-1.2,0.2c-0.1,0.1-0.2,0.2-0.3,0.2C42-35.7,41.9-35.4,41.8-35.2L41.8-35.2z"/>
			<path class="st1" d="M25-48.3c0.1-2,0.3-4,0.4-6c0-0.8-0.7-1.5-1.5-1.5c-0.9,0-1.4,0.7-1.5,1.5c-0.1,2-0.3,4-0.4,6
				c0,0.8,0.7,1.5,1.5,1.5C24.4-46.8,25-47.4,25-48.3L25-48.3z"/>
			<path class="st1" d="M42.7-43.8c0.5-0.7,1.1-1.3,1.6-2c0.1-0.1,0.2-0.3,0.3-0.5c0.1-0.2,0.1-0.4,0.1-0.6c0-0.2,0-0.4-0.1-0.6
				c-0.1-0.2-0.2-0.3-0.3-0.5c-0.3-0.3-0.7-0.5-1.1-0.4c-0.1,0-0.3,0-0.4,0.1c-0.3,0.1-0.5,0.2-0.7,0.4c-0.5,0.7-1.1,1.3-1.6,2
				c-0.1,0.1-0.2,0.3-0.3,0.5c-0.1,0.2-0.1,0.4-0.1,0.6c0,0.2,0,0.4,0.1,0.6c0.1,0.2,0.2,0.3,0.3,0.5c0.3,0.3,0.7,0.5,1.1,0.4
				c0.1,0,0.3,0,0.4-0.1C42.3-43.5,42.5-43.6,42.7-43.8L42.7-43.8z"/>
		</g>
		<g>
			<path class="st1" d="M8.8-35.2c-0.5,1.3-1.1,2.7-1.6,4c-0.1,0.3,0,0.9,0.2,1.2c0.2,0.3,0.5,0.6,0.9,0.7c0.4,0.1,0.8,0.1,1.2-0.2
				c0.1-0.1,0.2-0.2,0.3-0.2c0.2-0.2,0.3-0.4,0.4-0.7c0.5-1.3,1.1-2.7,1.6-4c0.1-0.3,0-0.9-0.2-1.2c-0.2-0.3-0.5-0.6-0.9-0.7
				c-0.4-0.1-0.8-0.1-1.2,0.2c-0.1,0.1-0.2,0.2-0.3,0.2C9-35.7,8.9-35.4,8.8-35.2L8.8-35.2z"/>
			<path class="st1" d="M9.7-43.8c0.5-0.7,1.1-1.3,1.6-2c0.1-0.1,0.2-0.3,0.3-0.5c0.1-0.2,0.1-0.4,0.1-0.6c0-0.2,0-0.4-0.1-0.6
				c-0.1-0.2-0.2-0.3-0.3-0.5c-0.3-0.3-0.7-0.5-1.1-0.4c-0.1,0-0.3,0-0.4,0.1c-0.3,0.1-0.5,0.2-0.7,0.4c-0.5,0.7-1.1,1.3-1.6,2
				c-0.1,0.1-0.2,0.3-0.3,0.5c-0.1,0.2-0.1,0.4-0.1,0.6c0,0.2,0,0.4,0.1,0.6c0.1,0.2,0.2,0.3,0.3,0.5c0.3,0.3,0.7,0.5,1.1,0.4
				c0.1,0,0.3,0,0.4-0.1C9.3-43.5,9.5-43.6,9.7-43.8L9.7-43.8z"/>
		</g>
		<g>
			<path class="st1" d="M67.7-69.9c-0.5,1.3-1.1,2.7-1.6,4c-0.1,0.3,0,0.9,0.2,1.2c0.2,0.3,0.5,0.6,0.9,0.7c0.4,0.1,0.8,0.1,1.2-0.2
				c0.1-0.1,0.2-0.2,0.3-0.2c0.2-0.2,0.3-0.4,0.4-0.7c0.5-1.3,1.1-2.7,1.6-4c0.1-0.3,0-0.9-0.2-1.2c-0.2-0.3-0.5-0.6-0.9-0.7
				c-0.4-0.1-0.8-0.1-1.2,0.2c-0.1,0.1-0.2,0.2-0.3,0.2C67.9-70.4,67.7-70.1,67.7-69.9L67.7-69.9z"/>
		</g>
		<g>
			<path class="st1" d="M44-66c0,2.1,0,4.3,0,6.4c0,0.8,0.7,1.5,1.5,1.5c0.8,0,1.5-0.7,1.5-1.5c0-2.1,0-4.3,0-6.4
				c0-0.8-0.7-1.5-1.5-1.5C44.7-67.5,44-66.8,44-66L44-66z"/>
			<path class="st1" d="M34.7-69.9c-0.5,1.3-1.1,2.7-1.6,4c-0.1,0.3,0,0.9,0.2,1.2c0.2,0.3,0.5,0.6,0.9,0.7c0.4,0.1,0.8,0.1,1.2-0.2
				c0.1-0.1,0.2-0.2,0.3-0.2c0.2-0.2,0.3-0.4,0.4-0.7c0.5-1.3,1.1-2.7,1.6-4c0.1-0.3,0-0.9-0.2-1.2c-0.2-0.3-0.5-0.6-0.9-0.7
				c-0.4-0.1-0.8-0.1-1.2,0.2c-0.1,0.1-0.2,0.2-0.3,0.2C34.9-70.4,34.7-70.1,34.7-69.9L34.7-69.9z"/>
			<path class="st1" d="M58.3-67.2c-0.5,1.3-1.1,2.7-1.6,4c-0.1,0.3,0,0.9,0.2,1.2c0.2,0.3,0.5,0.6,0.9,0.7c0.4,0.1,0.8,0.1,1.2-0.2
				c0.1-0.1,0.2-0.2,0.3-0.2c0.2-0.2,0.3-0.4,0.4-0.7c0.5-1.3,1.1-2.7,1.6-4c0.1-0.3,0-0.9-0.2-1.2c-0.2-0.3-0.5-0.6-0.9-0.7
				c-0.4-0.1-0.8-0.1-1.2,0.2c-0.1,0.1-0.2,0.2-0.3,0.2C58.5-67.7,58.4-67.4,58.3-67.2L58.3-67.2z"/>
		</g>
		<g>
			<path class="st1" d="M11-66c0,2.1,0,4.3,0,6.4c0,0.8,0.7,1.5,1.5,1.5c0.8,0,1.5-0.7,1.5-1.5c0-2.1,0-4.3,0-6.4
				c0-0.8-0.7-1.5-1.5-1.5C11.7-67.5,11-66.8,11-66L11-66z"/>
			<path class="st1" d="M1.7-69.9c-0.5,1.3-1.1,2.7-1.6,4c-0.1,0.3,0,0.9,0.2,1.2c0.2,0.3,0.5,0.6,0.9,0.7C1.5-64,1.9-64,2.3-64.2
				c0.1-0.1,0.2-0.2,0.3-0.2c0.2-0.2,0.3-0.4,0.4-0.7c0.5-1.3,1.1-2.7,1.6-4c0.1-0.3,0-0.9-0.2-1.2c-0.2-0.3-0.5-0.6-0.9-0.7
				C3.1-71,2.7-71,2.3-70.8c-0.1,0.1-0.2,0.2-0.3,0.2C1.9-70.4,1.7-70.1,1.7-69.9L1.7-69.9z"/>
			<path class="st1" d="M25.3-67.2c-0.5,1.3-1.1,2.7-1.6,4c-0.1,0.3,0,0.9,0.2,1.2c0.2,0.3,0.5,0.6,0.9,0.7c0.4,0.1,0.8,0.1,1.2-0.2
				c0.1-0.1,0.2-0.2,0.3-0.2c0.2-0.2,0.3-0.4,0.4-0.7c0.5-1.3,1.1-2.7,1.6-4c0.1-0.3,0-0.9-0.2-1.2c-0.2-0.3-0.5-0.6-0.9-0.7
				c-0.4-0.1-0.8-0.1-1.2,0.2c-0.1,0.1-0.2,0.2-0.3,0.2C25.5-67.7,25.4-67.4,25.3-67.2L25.3-67.2z"/>
		</g>
	</g>
</pattern>
<path class="st3" d="M304,14.5h-5.3H12.9v252.3h285.8h5.3h265.8V14.5H304z M272.6,73.9c-1.7,2.4-7.9,8-9.5,12.3c0.8,0.4,1.6,1,2,1.9
	c3.4,6.3-0.7,12.6-4.2,17.9c-0.8,1.2-2.2,2-3.7,2.3c0.1,1.7,0,3.3-0.4,5c-1.1,4.4-3.6,8.5-5.7,12.5c-5.3,10.2-11.4,19.6-19.2,28.1
	c-0.8,0.8-1.7,1.3-2.7,1.4v41c0,2.2-1.8,4-4,4H83.5c-2.2,0-4-1.8-4-4V120c-1.4-5.2-1.9-10.6-3.7-15.7c-1.5-4.3-2.7-8.5-3.1-13.1
	c-0.4-4.5,0.2-8.9,0.2-13.4c0-4.6-1-11.5,4.7-13.3c-1.1-1.7-1.8-3.4-2.3-5.3c-0.4-0.2-0.7-0.4-1.1-0.7c-1.4-0.9-2.1-2.1-2.3-3.3
	c-3.7-0.7-6.5-5.2-2.9-8.2c1.7-1.4,3.1-3,4.7-4.5c3-2.8,7-1.3,8.4,2.2c0.9,2.4,1.2,4.8,1.7,7.3c0.1,0.3,0.1,0.5,0.1,0.7
	c0.2,0.4,0.4,0.8,0.6,1.2c3.2-2,7.3,0.9,7.3,4.4c0,3.6-0.4,7.5,0.7,11c0.9,2.7,1.9,4.9,2.3,7.7h130.4c2.2,0,4,1.8,4,4v35.2
	c3.7-6.4,7.8-12.7,11.7-19c1.8-3,3.6-6,5.2-9.1c0.8-1.6,2.8-4.9,2.3-6.6c-1.3-4.1,3-7.1,6.5-6c0.2-0.6,0.3-1.1,0.4-1.5
	c0.5-3.1,0.6-6.3,1.5-9.3c1.8-6,7.9-11.6,14.4-7.8C277.6,60.8,276.2,68.7,272.6,73.9z M501,199.4H350.4V76.7h67.5
	c0.2-5,0.7-10,0.8-15c0-2.5,0.6-5.4,0.4-7.8c-0.1-1.3-0.8-2.1-1.1-3.5c-0.1-0.3-0.1-0.7-0.1-1c-0.2-0.2-0.4-0.4-0.7-0.6
	c-0.6-0.6-1.1-1.3-1.6-2c-0.9-1.1-1.4-2.1-1.5-3.5c-0.1-1.3,0.6-2.6,1.5-3.5c0.8-0.9,2.3-1.5,3.5-1.5c0.6,0,1.3,0.1,2,0.4
	c2-0.3,4.2,0.6,5.2,2.4c0,0,0,0,0,0c0.5,0.2,1,0.5,1.4,1.1c1.9,2.5,2.2,4.3,2.1,7.4c-0.1,2.1-1.5,3.4-3.4,3.5c0,2.2-0.4,4.5-0.4,6.7
	c-0.1,5.6-0.6,11.3-0.8,16.9h49c-0.3-0.7-0.3-1.5-0.2-2.3c0.3-1.7,1-2.5,1.9-3.1c0.1-0.4,0.1-0.8,0.3-1.2c1-3.4,4-6.1,7.2-7.3
	c7-2.6,13.9,0.5,15.9,7.8c0.5,1.9,0.5,4.1,0,6.1h1.7V199.4z"/>
<g>
	<g>
		<pattern  id="SVGID_1_" xlink:href="#sprinkles" patternTransform="matrix(1 0 0 1 -47 12)">
		</pattern>
		<path class="st4" d="M107.2,200.3c1.5-2.4,3.6-6.6,3.3-11.6c-0.4-6.5-5.2-10.9-6.3-12.6c-18.5-29-29.8-62.5-32.7-96.8
			c-0.3-3.1-0.4-6.4,0.5-9.3c2.8-8.5,13.7-11.9,17.3-20.1c6.1,30.5,14.5,60.6,25,89.9c0.8,2.1,1.7,7.9,6.4,12.8
			c5.8,6,13.9,7.4,19,7.8l3.3-2.2c-1.7,4.7-4.2,6.9-3.2,9.3c0.8,1.9,3,2.8,6.6,3.5c3.7,0.8,7.6,1.3,11.3,0.7
			c3.7-0.7,7.4-2.7,9.2-6.1c1.4-2.6,1.5-5.8,0.8-8.6l1.1,4.4c20.5-4.4,38.7-17.2,52.2-33.3s22.8-35.4,29.9-55.1
			c2.1,3.8,5.9,6.3,9.2,9.1c3.3,2.8,6.3,6.7,5.9,11c-0.2,2-1.1,3.9-2,5.7c-2.6,5.3-5.3,10.5-7.9,15.8c-9,17.9-18.5,36.3-34.5,48.4
			c-9,6.8-19.7,11.2-28.9,17.6c-2.5,1.7-5,3.8-6,6.7c-1.6,4.5,0.9,9.2,3.3,13.3L107.2,200.3z"/>
	</g>
	<g>
		<g>
			<path class="st1" d="M132.6,118c-3.8,11.4,0.4,25.5,11.7,30.9c6.2,3,13.4,2.6,19.6,0c2.7-1.2,5.3-2.7,7.5-4.7
				c2.3-2,4-4.6,5.5-7.3c3.5-6.7,6.2-13.8,7.4-21.3c0.3-1.9-2.6-2.7-2.9-0.8c-1,5.9-2.8,11.7-5.4,17.1c-1.3,2.7-2.6,5.4-4.4,7.7
				c-1.7,2.1-3.8,3.7-6.1,5c-5.2,3-11.5,4.2-17.4,2.5c-5.1-1.6-9.3-5.4-11.7-10.2c-2.9-5.7-3.1-12.3-1.1-18.3
				C136.1,117,133.2,116.2,132.6,118L132.6,118z"/>
		</g>
	</g>
	<g>
		<g>
			<path class="st1" d="M143,147.8c0.2,2.4,0,4.8-0.5,7.2c-0.6,2.6-1.7,4.8-2.9,7.1c-0.8,1.6-1.7,3.3-1.2,5.1c0.4,1.8,1.9,3,3.5,3.7
				c2.4,1.1,5.2,1.5,7.8,1.9c3,0.4,6,0.6,8.9,0c4.8-1,9.3-4.1,10.6-9c0.9-3.1,0.5-6.2-0.4-9.3c-0.6-2.4-1.5-4.8-2.9-6.9
				c-1-1.6-3.6-0.1-2.6,1.5c2.2,3.3,3.6,7.9,3.3,11.9c-0.4,4.5-3.9,7.6-8.1,8.6c-2.5,0.6-5.2,0.5-7.8,0.2c-2.3-0.3-4.8-0.7-7-1.5
				c-1-0.4-2.5-1-2.5-2.3c0-1.4,1.2-2.9,1.8-4.1c2.3-4.5,3.4-9.3,3-14.4C145.9,145.9,142.9,145.9,143,147.8L143,147.8z"/>
		</g>
	</g>
	<g>
		<g>
			<path class="st1" d="M169.4,162.6c15.6-3.4,29.8-11.5,41.7-22.1c12.6-11.3,22.4-25.4,30-40.4c4.4-8.7,8.2-17.8,11.5-27
				c-0.9,0.1-1.8,0.2-2.7,0.4c2.6,4.6,7.3,7.1,10.9,10.8c1.8,1.8,3.4,3.9,3.9,6.3c0.6,2.8-0.7,5.2-1.9,7.6
				c-5.1,10.2-10.1,20.6-15.7,30.6c-5.1,9.1-10.8,18-18.1,25.5c-3.8,3.9-8,7.3-12.6,10.3c-4.8,3.1-9.8,5.7-14.7,8.5
				c-2.8,1.6-5.7,3.3-8.4,5.1c-2.3,1.6-4.7,3.3-6.4,5.6c-4,5.5-1,12,2,17.2c1,1.7,3.6,0.2,2.6-1.5c-2.8-4.7-5.6-10.5-1.2-15.1
				c1.8-1.9,4.1-3.4,6.4-4.8c2.4-1.5,4.8-2.9,7.3-4.3c5.1-2.8,10.2-5.6,15-8.8c4.4-2.9,8.5-6.3,12.1-10c7.3-7.5,13.1-16.3,18.2-25.4
				c5.6-10,10.5-20.3,15.6-30.5c1.4-2.8,3.1-5.7,2.9-8.9c-0.1-2.8-1.4-5.3-3.1-7.5c-3.6-4.6-9.4-7.2-12.3-12.3
				c-0.7-1.2-2.3-0.8-2.7,0.4c-5.8,15.9-12.8,31.5-22.6,45.4c-9,13-20.5,24.4-34.2,32.4c-7.6,4.4-15.7,7.7-24.3,9.6
				C166.7,160.1,167.5,163,169.4,162.6L169.4,162.6z"/>
		</g>
	</g>
	<g>
		<g>
			<path class="st1" d="M108.5,201.1c2.7-4.4,4.2-9.5,3.2-14.7c-0.8-4.2-3.4-7.4-5.8-10.6c-1.6-2.1-2.9-4.6-4.3-6.9
				c-1.5-2.6-3-5.2-4.4-7.9c-2.8-5.3-5.4-10.8-7.8-16.3c-4.8-11.1-8.5-22.6-11.3-34.3c-1.4-5.9-2.5-11.8-3.4-17.7
				c-0.4-3-0.8-6-1.1-9c-0.3-3-0.7-6.1-0.6-9.1c0.1-2.9,0.9-5.5,2.6-7.9c1.4-2,3.3-3.6,5.1-5.1c3.8-3.2,8-6.3,10.1-11
				c-0.9-0.1-1.8-0.2-2.7-0.4c3.8,18.7,8.4,37.3,13.8,55.6c2.7,9.2,5.6,18.3,8.8,27.3c1.1,3.3,2.3,6.6,3.3,9.9
				c1.1,3.5,2.6,6.8,5,9.5c5.2,6.1,13.2,8.6,21,9.2c1.9,0.1,1.9-2.9,0-3c-6.5-0.5-13.1-2.4-17.8-7.2c-2.5-2.6-4.2-5.8-5.2-9.2
				c-1-3.2-2.1-6.3-3.2-9.4c-6.1-17.4-11.4-35.1-15.9-53c-2.6-10.1-4.9-20.3-6.9-30.5c-0.2-1.2-2.2-1.5-2.7-0.4
				C84.4,57.2,74.4,60.2,71,68.7c-1.1,2.8-1.2,5.9-1.1,8.8c0.2,3,0.5,6,0.9,9c0.7,6,1.7,11.9,2.9,17.8c4.8,23.6,13.6,46.4,25.9,67.1
				c1.4,2.3,2.7,4.7,4.3,6.7c1.3,1.7,2.6,3.3,3.6,5.2c2.7,5.4,1.5,11.3-1.5,16.2C104.9,201.2,107.5,202.7,108.5,201.1L108.5,201.1z"
				/>
		</g>
	</g>
	<g>
		<g>
			<path class="st1" d="M152.7,122.4c0.8,0.9,0.6,2.3,0.2,3.3c-0.5,1.3-1.2,2.5-1.6,3.9c-0.3,1.2-0.1,2.5,0.6,3.5
				c0.7,1,1.9,1.6,3.1,1.2c0.9-0.3,0.5-1.7-0.4-1.4c-1,0.3-1.7-0.8-1.9-1.6c-0.3-1.2,0.4-2.4,0.9-3.5c0.9-2,1.8-4.6,0.1-6.5
				C153.1,120.6,152.1,121.7,152.7,122.4L152.7,122.4z"/>
		</g>
	</g>
	<g>
		<g>
			<path class="st1" d="M153.7,142.5c4.1,0.3,8.2-2,10.1-5.6c0.4-0.9-0.8-1.6-1.3-0.8c-1.7,3.2-5.2,5.2-8.8,4.9
				C152.7,141,152.7,142.5,153.7,142.5L153.7,142.5z"/>
		</g>
	</g>
	<g>
		<g>
			<path class="st1" d="M149.4,115.1c4.1-3.5,9.5-5.1,14.8-4.8c2.6,0.1,5.2,0.7,7.5,1.8c2.6,1.2,4.6,3.4,7.2,4.5
				c5.2,2.2,10-3.2,9-8.3c-0.3-1.6-1.4-2.6-2.6-3.6c-2-1.7-3.5-3.7-5-5.9c-3.2-4.9-8.1-8.1-13.9-9.1c-4.9-0.8-10.7-0.4-15.3,1.5
				c-1.6,0.6-3.1,1.5-4.4,2.6c-1.4,1.2-2.2,2.8-3,4.4c-0.6,1.2-1.3,2.4-2.4,3.3c-1.1,0.9-2.5,1.3-3.9,1.6c-2.8,0.6-5.5,1-8,2.5
				c-2.6,1.6-4.7,3.9-6,6.6c-1.4,2.8-2.2,6.3-1,9.3c1.1,2.8,4.6,4.7,7.4,2.9c1.3-0.8,2-2.2,2.8-3.5c0.7-1.2,1.7-1.5,2.9-1.9
				c1.8-0.6,1-3.5-0.8-2.9c-2.3,0.8-3.8,1.7-5,3.8c-0.5,0.8-1,2.1-2.1,2.2c-1.4,0.2-2.3-1.2-2.6-2.3c-0.6-2.4,0.4-5.1,1.7-7.1
				c1.2-2,3-3.7,5.1-4.8c2.3-1.2,4.8-1.4,7.3-2c2.6-0.7,4.8-2.1,6.4-4.3c1.1-1.5,1.8-3.6,2.9-4.9c0.9-1,1.9-1.7,3-2.2
				c3.8-1.9,8.9-2.4,13.1-2c5,0.4,10.2,2.9,13,7.1c1.4,2.1,2.8,4.3,4.7,6.1c0.9,0.9,2.4,1.8,2.9,2.8c0.7,1.4-0.2,3.7-1.4,4.8
				c-2,1.8-4.2,0.2-6-1.1c-8.9-6.7-21.7-6.5-30.2,0.8C145.8,114.2,147.9,116.3,149.4,115.1L149.4,115.1z"/>
		</g>
	</g>
	<path class="st5" d="M229.2,157.5v38.3c0,2.5-2,4.6-4.6,4.6H84c-2.5,0-4.6-2-4.6-4.6v-74.1"/>
	<path class="st5" d="M95.5,77.1h129.1c2.5,0,4.6,2,4.6,4.6v35.5"/>
	<g>
		<g>
			<path class="st1" d="M86.7,55.6c0.3-3.6-0.4-7.2-2.2-10.4c-1.4-2.4-3.1-5.1-5.9-6c-3.7-1.3-7.1,1.5-9.1,4.4
				c-2,2.9-4,7.3-1.7,10.6c1.1,1.6,2.8,2.7,4.1,4.1c1.5,1.6,2.7,3.3,3.8,5.2c1,1.7,3.6,0.2,2.6-1.5c-1.6-2.8-3.7-5.4-6.2-7.6
				c-0.7-0.7-1.7-1.3-2.1-2.2c-0.7-1.5,0-3.3,0.7-4.7c1.1-2.2,3.4-5.9,6.4-5.5c2.2,0.3,3.6,2.8,4.6,4.5c1.7,2.9,2.3,6,2,9.2
				C83.5,57.6,86.5,57.6,86.7,55.6L86.7,55.6z"/>
		</g>
	</g>
	<g>
		<g>
			<path class="st1" d="M258.3,78c-0.6-5.2-1.4-10.9,1-15.8c1.8-3.8,6.3-7.2,10.7-5.4c1.8,0.8,3.1,2.4,3.9,4.3
				c0.3,0.8,0.6,1.7,0.7,2.6c0.1,0.5,0.1,1,0.1,1.5c0,0.2,0,0.5,0,0.7c0,0-0.1,0.5,0,0.2c0-0.2-0.1,0.4-0.1,0.5
				c0,0.1-0.1,0.2-0.1,0.4c-0.1,0.4,0.1-0.1-0.1,0.3c-0.5,1-1.1,2-1.8,3c-2.9,4.2-6.1,8.2-9.3,12.1c-1.2,1.5,0.9,3.6,2.1,2.1
				c3.4-4.1,6.7-8.3,9.7-12.6c1.2-1.7,2.4-3.6,2.6-5.7c0.5-4.5-1.5-9.7-5.7-11.8c-4.8-2.4-10.5-0.3-13.6,3.8
				c-4.4,5.7-3.7,13.1-2.9,19.8C255.5,79.9,258.5,79.9,258.3,78L258.3,78z"/>
		</g>
	</g>
	<circle class="st1" cx="163.2" cy="121.2" r="1.3"/>
	<circle class="st1" cx="146.9" cy="121.8" r="1.3"/>
	<path class="st1" d="M162.4,168.5c0.3,0.7,0.6,1.3,1,1.9c0.9-0.5,1.7-1.1,2.5-1.8C164.7,168.9,163.5,168.9,162.4,168.5z"/>
</g>
<g>
	<g>
		<g>
			<path class="st1" d="M435.4,112.1c-6.1-10.3-8.6-22.1-9.2-33.9c-0.3-6.7,0-13.6,1.8-20.1c0.8-2.9,2.2-5.6,2.7-8.5
				c0.6-3.5,0.2-7.2-2.1-10c-2-2.3-5.1-3.8-8.1-3.4c-3.1,0.4-5.8,2.6-6.9,5.5c-1.2,3.1,0,5.9,1.5,8.6c1,1.7,1.5,3.2,1.9,5.2
				c0.5,3.2,0.4,6.4,0.3,9.6c-0.1,2.7-0.2,5.3-0.4,8c-0.5,5.5-2.2,10.8-2.8,16.3c-1.3,11,2.5,22.2,7.3,32c0.9,1.8,1.9,3.7,2.9,5.4
				c0.9,1.7,3.5,0.2,2.6-1.5c-5.6-9.9-10.4-21.2-10-32.9c0.2-4.8,1.6-9.5,2.4-14.3c0.9-5.4,1.1-10.8,1.1-16.2c0-2.8-0.1-5.7-0.7-8.5
				c-0.4-1.9-1.3-3.6-2.3-5.3c-1.4-2.5-1.9-5.1,0.3-7.3c2.1-2.2,5.3-2.2,7.6-0.4c5.6,4.3,1.3,11.8-0.1,17
				c-1.7,6.3-2.1,12.9-1.9,19.3c0.4,12.8,3.1,25.7,9.6,36.8C433.8,115.3,436.4,113.8,435.4,112.1L435.4,112.1z"/>
		</g>
	</g>
	<g>
		<g>
			<path class="st1" d="M456.2,126.3c2.7-2,5.3-4.1,8-6.1c0.3-0.2,0.6-0.5,0.7-0.9c0.1-0.4,0.1-0.8-0.2-1.2
				c-0.4-0.6-1.4-1.1-2.1-0.5c-2.7,2-5.3,4.1-8,6.1c-0.3,0.2-0.6,0.5-0.7,0.9c-0.1,0.4-0.1,0.8,0.2,1.2
				C454.6,126.3,455.6,126.8,456.2,126.3L456.2,126.3z"/>
		</g>
	</g>
	<g>
		<g>
			<path class="st1" d="M470,138.5c1.2-4.2,2.9-8.3,5-12.2c0.9-1.7-1.7-3.2-2.6-1.5c-2.2,4.1-4,8.5-5.3,12.9
				C466.5,139.6,469.4,140.4,470,138.5L470,138.5z"/>
		</g>
	</g>
	<g>
		<g>
			<path class="st1" d="M460.8,97.1c-3,4-4.2,9.1-2.2,13.8c1.9,4.4,4.2,9.3,8.1,12.3c1.5,1.2,3.4,2,5.4,2c2.2,0,4.5-0.5,6.6-1
				c2.5-0.5,5.1-0.9,7.5-1.8c1-0.4,2-0.9,2.7-1.7c1.6-1.8,2.3-4.4,3.2-6.6c1.1-2.7,2-5.5,3.2-8.1c0.8-1.8-1.8-3.3-2.6-1.5
				c-1.9,4.2-3.1,8.7-5.1,12.8c-0.2,0.5-0.5,1-0.8,1.4c-0.1,0.1-0.2,0.2-0.3,0.3c-0.2,0.2,0.2-0.1,0,0c-0.1,0.1-0.2,0.1-0.3,0.2
				c-1.3,0.7-3,1.1-4.5,1.4c-2.5,0.5-5,1.1-7.5,1.4c-1.5,0.2-2.7,0.3-4-0.2c-3.9-1.7-5.9-5.9-7.7-9.5c-1.3-2.6-2.4-5-1.9-8
				c0.4-2.1,1.4-4,2.7-5.7C464.6,97.1,462,95.6,460.8,97.1L460.8,97.1z"/>
		</g>
	</g>
	<g>
		<g>
			<path class="st1" d="M479,79.7c-1.5-1.4-2.9-3-3.2-5.1c-0.4-2.2,0.7-4.4,2.2-6c3-3.2,7.7-5.7,12.1-4.5c4.8,1.3,8,6.5,7.6,11.4
				c-0.4,4.3-4,6.7-7.9,7.5C485.9,83.7,481.7,82.3,479,79.7c-1.4-1.3-3.5,0.8-2.1,2.1c3.3,3.2,8.1,4.9,12.7,4.2
				c4.9-0.7,9.7-3.6,10.8-8.8c1.3-5.9-2-12.8-7.6-15.3c-5.7-2.6-11.9-0.2-16.3,3.9c-2.2,2.1-3.9,4.9-3.8,8.1c0.1,3.2,2,5.7,4.2,7.9
				C478.2,83.1,480.4,81,479,79.7z"/>
		</g>
	</g>
	<g>
		<g>
			<path class="st1" d="M478,100.3c-0.6,1.8-1.6,3.4-3,4.7c-0.8,0.7-1.6,1.6-1.5,2.7c0.1,1.1,1,1.9,1.8,2.6c0.3,0.2,0.8,0.1,1-0.3
				c0.2-0.4,0.1-0.8-0.3-1c-0.5-0.4-1.3-1.1-1-1.9c0.3-0.7,1.1-1.2,1.6-1.8c1.2-1.4,2.1-3,2.7-4.7C479.8,99.8,478.3,99.4,478,100.3
				L478,100.3z"/>
		</g>
	</g>
	<g>
		<g>
			<path class="st1" d="M467.9,112.3c2.6,2.9,6.5,4.6,10.4,4.1c0.4,0,0.8-0.3,0.8-0.8c0-0.4-0.3-0.8-0.8-0.8c-3.6,0.4-7-1-9.4-3.7
				C468.3,110.5,467.3,111.6,467.9,112.3L467.9,112.3z"/>
		</g>
	</g>
	<g>
		<g>
			<path class="st1" d="M477.2,168.4c2.9,9.9,3.5,20.4,1.8,30.6c-0.3,1.9,2.6,2.7,2.9,0.8c1.8-10.7,1.2-21.7-1.8-32.2
				C479.6,165.7,476.7,166.5,477.2,168.4L477.2,168.4z"/>
		</g>
	</g>
	<g>
		<g>
			<path class="st1" d="M470.4,173.8c0.4,8.6,0.7,17.2,1.1,25.8c0.1,1.9,3.1,1.9,3,0c-0.4-8.6-0.7-17.2-1.1-25.8
				C473.4,171.9,470.4,171.9,470.4,173.8L470.4,173.8z"/>
		</g>
	</g>
	<path class="st6" d="M499.1,76.7L499.1,76.7c1.6,0,2.9,1.3,2.9,2.9v117c0,2.2-1.8,4-4,4H354.4c-2.2,0-4-1.8-4-4V80.7
		c0-2.2,1.8-4,4-4h64.7"/>
	<line class="st6" x1="425" y1="76.7" x2="474.8" y2="76.7"/>
	<g>
		<g>
			<path class="st1" d="M477.5,79.3c-6.5,1.6-12.8,4.7-16.9,10.1c-1.2,1.5-2.2,3.2-3,5c-0.6,1.4-1.4,3.1-1,4.7
				c1.2,4,7.2-0.5,8.9-1.5c4.4-2.5,9-4.8,13.7-6.8c-0.4,0.1-0.8,0.1-1.2,0.2c3.3,1,6.7,2.4,9.3,4.7c1.5,1.4,2.8,3,3.6,5
				c0.7,1.8,0.9,3.7,1.4,5.6c0.3,1.2,1,2.4,2.4,2.4c1.3,0,2.2-1.1,2.8-2.1c2.1-3.2,2.9-7.5,3-11.3c0.1-4.4-1.2-8.7-3.5-12.4
				c-1-1.7-3.6-0.1-2.6,1.5c1.7,2.9,2.9,6.1,3,9.5c0.2,3.6-0.5,7.6-2.4,10.8c-0.1,0.2-0.7,0.9-0.7,0.9c0,0.2-0.2-0.1-0.1,0
				c0,0,1,0.2,0.9,0.2c0.2-0.2,0,0.1,0.1,0.1c0,0-0.1-0.4-0.1-0.4c-0.3-1.7-0.6-3.4-1.2-5c-1.2-3.5-3.6-6.4-6.6-8.5
				c-1.3-0.9-2.8-1.7-4.3-2.4c-1.4-0.6-3.1-1.4-4.6-1.6c-0.9-0.1-1.9,0.6-2.7,1c-1,0.5-2.1,1-3.1,1.5c-1.8,0.8-3.5,1.7-5.2,2.6
				c-1.3,0.7-2.7,1.4-4,2.2c-0.9,0.5-1.8,1-2.7,1.5c-0.4,0.2-0.7,0.4-1.1,0.6c-0.2,0.1-0.8,0.2-0.9,0.3c-0.3,0.4-0.1-0.1-0.1,0
				c0-0.1,0.6,0.4,0.5,0.3c0.4,0.3,0,0.3,0.2-0.1c0.2-0.6,0.3-1.3,0.6-1.9c0.7-1.6,1.6-3.2,2.7-4.6c3.5-4.8,9.6-7.8,15.5-9.2
				C480.2,81.7,479.4,78.8,477.5,79.3L477.5,79.3z"/>
		</g>
	</g>
	<g>
		<g>
			<path class="st1" d="M455.7,120.4c-1.9,0.8-3.2,2.8-3.5,4.8c-0.4,2.3,0.2,4.5,1.6,6.3c2.9,4,8,6.4,12.7,7.5
				c1.4,0.3,2.9,0.7,4.3,0c1.3-0.6,2-2,1.7-3.5c-0.4-1.9-3.3-1.1-2.9,0.8c-0.1-0.2,0.1-0.1-0.1,0c-0.1,0.1-0.2,0.1-0.3,0.1
				c-0.5,0.1-1.1-0.1-1.6-0.2c-1.2-0.3-2.3-0.6-3.5-1c-2.1-0.8-4.3-2-6-3.5c-1.4-1.2-2.8-2.8-3-4.8c-0.1-1.7,0.6-3.3,2.1-4
				c0.7-0.3,0.9-1.4,0.5-2.1C457.3,120.2,456.5,120.1,455.7,120.4L455.7,120.4z"/>
		</g>
	</g>
	<g>
		<g>
			<path class="st1" d="M457.2,134.2c-4.1,5.2-7.8,10.8-11,16.6c-0.9,1.7,1.6,3.2,2.6,1.5c3.1-5.6,6.6-10.9,10.6-16
				c0.5-0.6,0.6-1.5,0-2.1C458.8,133.7,457.7,133.6,457.2,134.2L457.2,134.2z"/>
		</g>
	</g>
	<g>
		<g>
			<path class="st1" d="M412.5,177.2c11.6,9.6,26.9,14.4,41.9,12.6c-0.5-0.5-1-1-1.5-1.5c-0.3,3.9-0.6,7.8-0.9,11.7
				c-0.1,1.9,2.9,1.9,3,0c0.3-3.9,0.6-7.8,0.9-11.7c0.1-0.7-0.7-1.6-1.5-1.5c-14.2,1.7-28.8-2.6-39.8-11.7
				C413.1,173.9,411,176,412.5,177.2L412.5,177.2z"/>
		</g>
	</g>
	<g>
		<g>
			<path class="st1" d="M406.4,199.8c1.3-8.1,3.9-15.9,7.8-23.2c0.9-1.7-1.7-3.2-2.6-1.5c-4,7.5-6.7,15.5-8.1,23.9
				C403.2,200.9,406.1,201.7,406.4,199.8L406.4,199.8z"/>
		</g>
	</g>
	<g>
		<g>
			<path class="st1" d="M414.3,174.1c-1.4-3.9,0.7-7.7,2.9-10.9c2.3-3.3,4.6-6.3,6.1-10c2.2-5.5,3-11.5,2.9-17.4
				c-0.1-2.9-0.5-5.7,0.6-8.5c1.1-2.5,3.3-4.6,4.9-6.8c1.7-2.3,3.2-4.6,4.7-7.1c0.2-0.3,0.3-0.5,0.5-0.8c-0.2,0.3,0.3-0.4,0.2-0.2
				c-0.2,0.2,0.1-0.1,0.2-0.1c0.3-0.1-0.3,0.1,0,0c0.4-0.1,0.4-0.1,0.8-0.1c2.2,0,4.9,2.1,6.7,3.4c3.4,2.4,6.8,4.8,10,7.5
				c1.5,1.2,3.6-0.9,2.1-2.1c-3.1-2.5-6.3-4.9-9.5-7.1c-2.3-1.6-4.8-3.5-7.6-4.3c-1.6-0.5-3.5-0.4-4.8,0.8c-1.3,1.2-2,3-2.9,4.5
				c-2,3.1-4.4,5.9-6.6,8.8c-1.8,2.6-2.6,5.6-2.5,8.7c0.2,5.9,0.1,11.7-1.7,17.4c-0.6,2.1-1.5,4.1-2.6,6c-1.2,2.1-2.8,3.9-4.2,5.9
				c-2.7,3.8-4.8,8.5-3.2,13.2C412,176.7,414.9,175.9,414.3,174.1L414.3,174.1z"/>
		</g>
	</g>
	<g>
		<g>
			<path class="st1" d="M470.8,138.7c4.9,4.8,7.9,10.7,9.1,17.4c0.4,2.4,1.5,5.7,0.4,8.1c-0.2,0.4-0.1,0.3-0.4,0.5
				c-0.3,0.3-0.6,0.5-0.9,0.8c-1.1,0.9-2.2,1.8-3.3,2.7c-1.8,1.5-3.5,3.6-5.3,4.8c0.1-0.1,0,0.1-0.2,0c-0.3-0.1-0.6-0.4-0.8-0.7
				c-0.7-0.9-1.1-2.1-2.1-2.8c-2.2-1.7-4.6,0.4-6.1,2.1c-4,4.8-6.6,10.9-9.1,16.5c-0.8,1.7,1.8,3.3,2.6,1.5c2.4-5.3,4.8-11,8.3-15.5
				c0.4-0.5,0.9-1.1,1.4-1.5c0.1-0.1,0.2-0.2,0.3-0.3c0.1-0.1-0.2,0.1,0,0c0.2-0.1,0.4-0.2,0.6-0.3c-0.3,0.1-0.1,0,0.2,0
				c-0.6,0,0.1,0,0.1,0c-0.1,0.7-0.4-0.3-0.2,0c0.1,0.1,0.3,0.3,0.4,0.4c0.4,0.5,0.6,1,0.9,1.5c1.2,1.8,3.3,2.8,5.3,1.6
				c0.8-0.5,1.5-1.2,2.2-1.9c1.2-1.2,2.5-2.4,3.8-3.5c1.5-1.3,3.7-2.5,4.6-4.3c1.4-2.6,0.8-5.5,0.3-8.2c-0.7-4.3-1.7-8.5-3.8-12.4
				c-1.7-3.2-3.9-6-6.5-8.6C471.5,135.2,469.4,137.3,470.8,138.7L470.8,138.7z"/>
		</g>
	</g>
	<g>
		<pattern  id="SVGID_2_" xlink:href="#New_Pattern" patternTransform="matrix(1 0 0 1 -9.0033 12)">
		</pattern>
		<path class="st7" d="M453.8,190.6c6.9-15.4,10.5-18.9,12.4-18.4c1.7,0.4,1.9,3.7,4.2,4c1.6,0.2,2.3-1.3,6.7-5.2
			c3.6-3.1,4.2-3.1,4.9-4.5c0.9-1.9,0.5-4-0.2-8c-0.4-2.5-0.8-4.7-1.8-7.4c-2.1-5.5-5.4-9.4-7.9-11.8l-0.8-1.6
			c0.2,0.7-0.3,1.5-1,1.8c-0.7,0.3-1.5,0.2-2.3,0c-3.3-0.6-6.4-2-9.1-3.8c-2.1-1.4-4.1-3.3-4.8-5.8c-0.7-2.5,0.3-5.5,2.7-6.5
			l-0.7,0.4c-1.2-1-3.1-2.5-5.4-4.1c-7.1-5.2-10.7-7.8-13.4-7c-1.9,0.6-1.4,1.8-6.5,8.7c-3.2,4.3-4.6,5.4-5.5,8.4
			c-0.8,2.6-0.4,4.2-0.3,6.8c0.1,2.2,0.4,12.6-4.2,21c-1.7,3.1-4.1,5.7-5.9,8.7c-1.8,3-2.9,6.7-1.7,10l0.7,1.6
			c11.2,9.4,26.4,13.9,40.9,12.2L453.8,190.6z"/>
	</g>
	<ellipse class="st1" cx="471.7" cy="100.7" rx="1.2" ry="1"/>
	<ellipse class="st1" cx="483.5" cy="104.2" rx="1.2" ry="1"/>
	<circle class="st8" cx="484" cy="110.8" r="3.3"/>
	<circle class="st8" cx="467.3" cy="104.9" r="3.3"/>
</g>
</svg>
