<?xml version="1.0" encoding="utf-8"?>
<!-- Generator: Adobe Illustrator 24.0.3, SVG Export Plug-In . SVG Version: 6.00 Build 0)  -->
<svg version="1.0" xmlns="http://www.w3.org/2000/svg" xmlns:xlink="http://www.w3.org/1999/xlink" x="0px" y="0px"
	 viewBox="0 0 1440 900" style="enable-background:new 0 0 1440 900;" xml:space="preserve">
<style type="text/css">
	.st0{display:none;}
	.st1{fill:#FFFFFF;}
	.st2{fill:none;stroke:#FFFFFF;stroke-width:4;stroke-miterlimit:10;}
	.st3{fill:none;stroke:#FFFFFF;stroke-width:2;stroke-miterlimit:10;}
	.st4{fill:#11113A;}
</style>
<g id="Layer_1" class="st0">
</g>
<g id="Layer_2">
	<g>
		<path class="st1" d="M711,74.4l25.3,39.4l-1.9,0.2l-9.5-14.7l-21.8,2.5l-5.8,16.4l-1.7,0.2L711,74.4z M711.3,78.2l-7.7,22.1
			l20.4-2.4L711.3,78.2z"/>
		<path class="st1" d="M643.1,180.9l-0.6,0.1c-3.7,0.4-7.3-0.1-10.8-1.7c-3.5-1.6-6.3-3.9-8.5-6.9c-2.2-3-3.6-6.4-4-10
			c-0.7-5.8,0.8-11,4.5-15.6c3.7-4.6,8.4-7.3,14.2-8c3.9-0.5,7.7,0.1,11.4,1.8l0.2,2c-3.7-1.9-7.5-2.7-11.4-2.2
			c-5.3,0.6-9.7,3.1-13,7.3c-3.4,4.3-4.7,9.1-4.1,14.4c0.6,5.3,3.1,9.7,7.3,13.1c4.3,3.4,9,4.8,14.4,4.2c4-0.5,7.5-2,10.6-4.8l0.2,2
			C650.4,179,647,180.4,643.1,180.9z"/>
		<path class="st1" d="M685.3,134l1.8-0.2l4.7,40.8l-1.8,0.2l-1.8-15.6l-28,3.3l1.8,15.6l-1.8,0.2l-4.7-40.8l1.8-0.2l2.8,23.7
			l28-3.3L685.3,134z"/>
		<path class="st1" d="M703.9,167.5c-4.6-3.8-7.2-8.5-7.9-14.2c-0.7-5.7,0.9-10.8,4.5-15.5c3.7-4.6,8.4-7.3,14.3-8
			c5.8-0.7,11.1,0.8,15.7,4.5c4.6,3.7,7.3,8.3,7.9,14c0.7,5.7-0.8,10.9-4.4,15.6c-3.6,4.7-8.3,7.4-13.9,8l-0.8,0.1
			C713.6,172.8,708.5,171.2,703.9,167.5z M736.7,148.7c-0.6-5.3-3.1-9.7-7.3-13.1c-4.2-3.4-9-4.8-14.4-4.1
			c-5.3,0.6-9.7,3.1-13.1,7.3c-3.4,4.3-4.7,9.1-4.1,14.4c0.6,5.3,3.1,9.7,7.3,13.1c4.3,3.4,9,4.8,14.4,4.2s9.7-3.1,13-7.4
			C735.9,158.8,737.3,154,736.7,148.7z"/>
		<path class="st1" d="M742.6,127.3l2.3-0.3c3.5-0.4,6.8,0.5,9.7,2.8c3,2.3,4.7,5.2,5.1,8.7c0.4,3.5-0.6,6.7-3,9.6
			c-2.4,2.9-5.2,4.5-8.3,4.9l-0.4,0l15.8,13.2l-2.3,0.3L747.6,155l1.5,12.9l-1.7,0.2L742.6,127.3z M747.2,151.6l1-0.1
			c2.9-0.3,5.4-1.8,7.4-4.3c2-2.5,2.8-5.3,2.4-8.4c-0.4-3.1-1.8-5.6-4.4-7.6c-2.6-2-5.4-2.8-8.3-2.5l-0.7,0.1L747.2,151.6z"/>
		<path class="st1" d="M782,164.9l-0.5,0.1c-3.3,0.4-6.3-0.4-8.9-2.5c-2.6-2.1-4.1-4.8-4.5-8.4l-3.4-29.3l1.8-0.2l3.4,29.3
			c0.4,3.1,1.7,5.5,3.9,7.3c2.2,1.8,4.8,2.5,7.8,2.2c2.9-0.3,5.3-1.6,7-3.9c1.7-2.2,2.4-4.9,2.1-8l-3.4-29.3l1.8-0.2l3.4,29.2
			c0.4,3.6-0.4,6.6-2.4,9.2C788,163,785.3,164.5,782,164.9z"/>
		<path class="st1" d="M810.8,121.6c-1.5-0.7-3.2-1-5-0.7c-1.8,0.2-3.2,0.9-4.3,2.2c-1.1,1.3-1.6,2.8-1.3,4.8l0,0.3
			c0.3,2.3,1.8,4.2,4.5,5.8c1.2,0.7,2.5,1.3,3.9,1.9c1.5,0.6,2.9,1.3,4.4,2c1.5,0.7,2.8,1.5,4,2.4c1.2,0.9,2.3,2,3.1,3.4
			c0.9,1.4,1.4,2.9,1.6,4.7l0.1,0.5c0.4,3.4-0.4,6.3-2.6,8.6c-2.1,2.3-4.9,3.7-8.3,4.1c-4.5,0.5-8.3-0.9-11.2-4.4l-0.3-2.9
			c1.2,2,2.8,3.5,4.7,4.5c2,1.1,4.3,1.5,7.1,1.1c2.7-0.3,5-1.5,6.8-3.4c1.8-2,2.5-4.4,2.2-7.3l0-0.3c-0.2-1.8-0.9-3.4-2-4.8
			c-1.1-1.4-2.4-2.5-4-3.3c-1.5-0.8-3.2-1.6-5-2.5c-1.8-0.9-3.4-1.7-5-2.4c-1.5-0.7-2.8-1.7-3.9-3c-1.1-1.3-1.7-2.7-1.9-4.3l0-0.4
			c-0.3-2.5,0.3-4.6,1.8-6.1c1.5-1.5,3.4-2.4,5.8-2.7c3.3-0.4,6.1,0.5,8.4,2.8l0.3,2.8C813.6,123.4,812.3,122.3,810.8,121.6z"/>
		<path class="st1" d="M688.5,189.1l4.6,39.2l13.7-1.6l0.2,1.6l-15.5,1.8l-4.7-40.8L688.5,189.1z"/>
		<path class="st1" d="M708.8,186.8l1.8-0.2l4.7,40.8l-1.8,0.2L708.8,186.8z"/>
		<path class="st1" d="M743.8,182.7l17.4-2l0.2,1.6l-15.6,1.8l2.6,22.2l13.5-1.6l0.2,1.6l-13.5,1.6l1.6,13.9l15.6-1.8l0.2,1.6
			l-17.4,2L743.8,182.7z"/>
		<path class="st1" d="M735.6,183.6l1.3,10.9c-1.1-1.9-2.6-3.5-4.5-5c-4-3.2-8.6-4.5-13.8-3.9v0l-1.6,0.2l4.7,40.8l1.6-0.2
			l-3.3-28.1l-0.9-7.6l-0.4-3.7c4.7-0.5,8.9,0.7,12.6,3.6c3.6,2.9,5.7,6.6,6.3,11.1l2.2,18.7l0.5,3.9l1.6-0.2l-4.8-40.8L735.6,183.6
			z"/>
		<line class="st2" x1="710.1" y1="100.3" x2="733.8" y2="97.6"/>
		<line class="st2" x1="655.3" y1="162.3" x2="678.9" y2="159.5"/>
		<line class="st2" x1="664.6" y1="105.6" x2="682.7" y2="103.5"/>
		<line class="st2" x1="745.4" y1="96.2" x2="763.5" y2="94.1"/>
		<circle class="st3" cx="720" cy="154.3" r="117"/>
	</g>
	<g>
		<path class="st1" d="M599.7,822.8v-0.9h9.2v8.9c-1.9,1.2-4.1,1.8-6.5,1.8H602c-2.2,0-4.3-0.6-6.3-1.8c-1.9-1.2-3.5-2.7-4.6-4.7
			c-1.1-2-1.7-4-1.7-6.2c0-3.5,1.3-6.4,3.8-8.9c2.5-2.5,5.5-3.7,9-3.7c2.3,0,4.5,0.6,6.6,1.8v1.2c-2-1.4-4.3-2.1-6.6-2.1
			c-3.2,0-6,1.2-8.2,3.5c-2.3,2.3-3.4,5.1-3.4,8.3c0,3.2,1.1,6,3.4,8.3c2.3,2.3,5,3.5,8.2,3.5c1.8,0,3.6-0.5,5.6-1.4v-7.4H599.7z"/>
		<path class="st1" d="M614.1,830.2c-1.5-1.6-2.3-3.4-2.3-5.4c0-2.1,0.8-3.9,2.3-5.4c1.5-1.5,3.4-2.3,5.5-2.3c2.1,0,4,0.8,5.5,2.3
			c1.5,1.5,2.3,3.3,2.3,5.4c0,2.1-0.7,3.9-2.2,5.4c-1.5,1.5-3.3,2.3-5.4,2.3h-0.3C617.4,832.5,615.6,831.7,614.1,830.2z
			 M626.3,824.8c0-1.8-0.7-3.4-2-4.8c-1.3-1.4-2.9-2-4.7-2c-1.8,0-3.4,0.7-4.8,2c-1.3,1.4-2,3-2,4.8s0.7,3.4,2,4.8
			c1.3,1.3,2.9,2,4.8,2s3.4-0.7,4.7-2C625.7,828.2,626.3,826.6,626.3,824.8z"/>
		<path class="st1" d="M645.2,807.6v24.5h-1v-3.6c-0.7,1.2-1.6,2.2-2.8,2.9c-1.2,0.7-2.5,1.1-3.8,1.1c-2.2,0-4-0.8-5.5-2.3
			c-1.5-1.5-2.3-3.3-2.3-5.4c0-2.1,0.8-3.9,2.3-5.4c1.5-1.5,3.4-2.3,5.5-2.3c1.4,0,2.7,0.4,3.9,1.1c1.3,0.7,2.2,1.7,2.8,2.9v-13.4
			H645.2z M630.7,824.8c0,1.8,0.7,3.4,2,4.8c1.3,1.3,2.9,2,4.7,2s3.4-0.7,4.8-2c1.3-1.3,2-2.9,2-4.8s-0.7-3.4-2-4.8
			c-1.3-1.4-2.9-2-4.8-2c-1.8,0-3.4,0.7-4.7,2C631.4,821.4,630.7,823,630.7,824.8z"/>
		<path class="st1" d="M649.4,832.4c-0.8,0-1.1-0.3-1.1-1c0-0.7,0.4-1,1.1-1s1.1,0.3,1.1,1C650.5,832,650.2,832.4,649.4,832.4z"/>
		<path class="st1" d="M665.8,807.6h1.1v24.5h-1.1V807.6z"/>
		<path class="st1" d="M683.9,832.1h-1v-24.5h1v12.6c1.1-2.1,3-3.2,5.7-3.2c1.8,0,3.4,0.6,4.6,1.9c1.3,1.3,1.9,2.8,1.9,4.6v8.6h-1
			v-8.6c0-1.5-0.5-2.8-1.6-3.9c-1.1-1.1-2.4-1.7-3.9-1.7c-1.5,0-2.8,0.6-4,1.7c-1.1,1.1-1.7,2.4-1.7,3.9V832.1z"/>
		<path class="st1" d="M701.1,830.2c-1.5-1.6-2.3-3.4-2.3-5.4c0-2.1,0.8-3.9,2.3-5.4c1.5-1.5,3.4-2.3,5.5-2.3c2.1,0,4,0.8,5.5,2.3
			c1.5,1.5,2.3,3.3,2.3,5.4c0,2.1-0.7,3.9-2.2,5.4c-1.5,1.5-3.3,2.3-5.4,2.3h-0.3C704.4,832.5,702.6,831.7,701.1,830.2z
			 M713.4,824.8c0-1.8-0.7-3.4-2-4.8c-1.3-1.4-2.9-2-4.7-2c-1.8,0-3.4,0.7-4.8,2c-1.3,1.4-2,3-2,4.8s0.7,3.4,2,4.8
			c1.3,1.3,2.9,2,4.8,2s3.4-0.7,4.7-2C712.7,828.2,713.4,826.6,713.4,824.8z"/>
		<path class="st1" d="M717.5,838.7v-21.3h1v3.6c0.6-1.2,1.5-2.2,2.8-2.9c1.3-0.7,2.6-1.1,3.9-1.1c2.2,0,4,0.8,5.5,2.3
			c1.5,1.5,2.3,3.3,2.3,5.4c0,2.1-0.8,3.9-2.3,5.4c-1.5,1.5-3.4,2.3-5.5,2.3c-1.3,0-2.6-0.4-3.8-1.1c-1.2-0.7-2.2-1.7-2.8-2.9v10.1
			H717.5z M718.5,824.8c0,1.8,0.7,3.4,2,4.8c1.3,1.3,2.9,2,4.8,2s3.4-0.7,4.7-2c1.3-1.3,2-2.9,2-4.8c0-1.8-0.7-3.4-2-4.8
			c-1.3-1.4-2.9-2-4.7-2s-3.4,0.7-4.8,2C719.2,821.4,718.5,823,718.5,824.8z"/>
		<path class="st1" d="M743.5,832.5h-0.3c-2.1,0-3.9-0.8-5.4-2.3c-1.5-1.6-2.3-3.4-2.3-5.4c0-2.1,0.8-3.9,2.3-5.4
			c1.5-1.5,3.4-2.3,5.7-2.3s4.2,0.9,5.8,2.7L739,829.9c1.4,1.1,2.8,1.7,4.1,1.7s2.5-0.3,3.5-0.9c1-0.6,1.9-1.4,2.6-2.4v1.7
			C747.6,831.7,745.7,832.5,743.5,832.5z M743.2,818c-1.7,0-3.3,0.7-4.6,2c-1.3,1.3-2,2.9-2,4.6c0,1.7,0.6,3.3,1.7,4.6l9.5-9.5
			C746.4,818.6,744.9,818,743.2,818z"/>
		<path class="st1" d="M764.4,807.6h1.1v24.5h-1.1V807.6z"/>
		<path class="st1" d="M795.2,817.4h1v13.3c0,2.5-0.7,4.5-2.1,6s-3.2,2.2-5.5,2.2c-1.2,0-2.5-0.3-3.6-0.9s-2.1-1.3-2.7-2.2v-1.5
			c0.6,1,1.5,1.9,2.7,2.6s2.4,1,3.7,1c1.9,0,3.5-0.6,4.7-1.9c1.2-1.3,1.8-3.1,1.8-5.3v-2.2c-0.6,1.2-1.5,2.2-2.8,2.9
			c-1.3,0.7-2.6,1.1-3.9,1.1c-2.1,0-4-0.8-5.5-2.3s-2.3-3.3-2.3-5.4s0.8-3.9,2.3-5.4s3.4-2.3,5.5-2.3c1.4,0,2.7,0.4,4,1.1
			c1.2,0.7,2.1,1.7,2.7,2.9V817.4z M781.8,824.8c0,1.9,0.7,3.5,2,4.8s2.9,2,4.8,2c1.8,0,3.4-0.7,4.7-2c1.3-1.3,2-2.9,2-4.8
			s-0.7-3.5-2-4.8c-1.3-1.3-2.9-2-4.7-2c-1.8,0-3.4,0.7-4.8,2S781.8,823,781.8,824.8z"/>
		<path class="st1" d="M807.5,832.5h-0.3c-2.1,0-3.9-0.8-5.4-2.3c-1.5-1.6-2.3-3.4-2.3-5.4c0-2.1,0.8-3.9,2.3-5.4
			c1.5-1.5,3.4-2.3,5.7-2.3s4.2,0.9,5.8,2.7L803,829.9c1.4,1.1,2.8,1.7,4.1,1.7s2.5-0.3,3.5-0.9c1-0.6,1.9-1.4,2.6-2.4v1.7
			C811.6,831.7,809.7,832.5,807.5,832.5z M807.2,818c-1.7,0-3.3,0.7-4.6,2c-1.3,1.3-2,2.9-2,4.6c0,1.7,0.6,3.3,1.7,4.6l9.5-9.5
			C810.5,818.6,808.9,818,807.2,818z"/>
		<path class="st1" d="M821.6,831.4v0.9c-1.5,0-2.9-0.5-4-1.6c-1.1-1-1.6-2.4-1.6-4v-15.3h1v6h4.5v0.9h-4.5v8.4
			c0,1.3,0.4,2.4,1.3,3.3C819.3,831,820.4,831.4,821.6,831.4z"/>
		<path class="st1" d="M836.7,813.9c-0.6,0-0.9-0.3-0.9-0.9s0.3-0.9,0.9-0.9s0.9,0.3,0.9,0.9S837.3,813.9,836.7,813.9z M837.2,817.5
			v14.7h-1v-14.7H837.2z"/>
		<path class="st1" d="M846.8,831.4v0.9c-1.5,0-2.9-0.5-4-1.6c-1.1-1-1.6-2.4-1.6-4v-15.3h1v6h4.5v0.9h-4.5v8.4
			c0,1.3,0.4,2.4,1.3,3.3C844.5,831,845.5,831.4,846.8,831.4z"/>
		<path class="st1" d="M849.7,832.4c-0.8,0-1.1-0.3-1.1-1c0-0.7,0.4-1,1.1-1s1.1,0.3,1.1,1C850.9,832,850.5,832.4,849.7,832.4z"/>
	</g>
	
		<image style="overflow:visible;" width="459" height="1125" xlink:href="../../../../Desktop/A Chorus Line Characters/shelbi.png"  transform="matrix(0.3327 -8.720937e-04 8.720937e-04 0.3327 1089.3148 351.9712)">
	</image>
	
		<image style="overflow:visible;" width="459" height="1125" xlink:href="../../../../Desktop/A Chorus Line Characters/maddi.png"  transform="matrix(0.3327 -8.720937e-04 8.720937e-04 0.3327 675.4713 353.056)">
	</image>
	
		<image style="overflow:visible;" width="459" height="1125" xlink:href="../../../../Desktop/A Chorus Line Characters/dalton.png"  transform="matrix(0.3112 4.433385e-03 -4.433385e-03 0.3112 999.3642 374.9641)">
	</image>
	
		<image style="overflow:visible;" width="459" height="1125" xlink:href="../../../../Desktop/A Chorus Line Characters/emma.png"  transform="matrix(0.3327 4.700913e-03 -4.700913e-03 0.3327 913.0396 352.4333)">
	</image>
	
		<image style="overflow:visible;" width="459" height="1125" xlink:href="../../../../Desktop/A Chorus Line Characters/jernie.png"  transform="matrix(0.3327 4.700913e-03 -4.700913e-03 0.3327 765.9214 350.8634)">
	</image>
	
		<image style="overflow:visible;" width="459" height="1125" xlink:href="../../../../Desktop/A Chorus Line Characters/ani.png"  transform="matrix(0.3327 -8.720937e-04 8.720937e-04 0.3327 835.3396 352.6369)">
	</image>
	
		<image style="overflow:visible;" width="459" height="1125" xlink:href="../../../../Desktop/A Chorus Line Characters/mia.png"  transform="matrix(0.3327 -8.720937e-04 8.720937e-04 0.3327 592.7025 353.273)">
	</image>
	
		<image style="overflow:visible;" width="459" height="1125" xlink:href="../../../../Desktop/A Chorus Line Characters/micky.png"  transform="matrix(0.3327 -8.720937e-04 8.720937e-04 0.3327 511.0676 353.487)">
	</image>
	
		<image style="overflow:visible;" width="459" height="1125" xlink:href="../../../../Desktop/A Chorus Line Characters/owen.png"  transform="matrix(0.3327 -8.720937e-04 8.720937e-04 0.3327 337.5934 353.9417)">
	</image>
	
		<image style="overflow:visible;" width="459" height="1125" xlink:href="../../../../Desktop/A Chorus Line Characters/sara.png"  transform="matrix(0.3327 -8.720937e-04 8.720937e-04 0.3327 430.5665 353.698)">
	</image>
	
		<image style="overflow:visible;" width="593" height="1125" xlink:href="../../../../Desktop/A Chorus Line Characters/thecouple.png"  transform="matrix(0.3327 -8.720937e-04 8.720937e-04 0.3327 197 354.3102)">
	</image>
	<rect x="-182" y="-195" class="st4" width="151" height="284"/>
</g>
</svg>
