<?xml version="1.0" encoding="utf-8"?>
<!-- Generator: Adobe Illustrator 24.0.3, SVG Export Plug-In . SVG Version: 6.00 Build 0)  -->
<svg version="1.0" id="Layer_1" xmlns="http://www.w3.org/2000/svg" xmlns:xlink="http://www.w3.org/1999/xlink" x="0px" y="0px"
	 viewBox="0 0 137.9 137.9" style="enable-background:new 0 0 137.9 137.9;" xml:space="preserve">
<style type="text/css">
	.st0{fill:#FFFFFF;stroke:#FFFFFF;stroke-miterlimit:10;}
	.st1{fill:none;stroke:#FFFFFF;stroke-width:4;stroke-miterlimit:10;}
	.st2{fill:none;stroke:#FFFFFF;stroke-width:3;stroke-miterlimit:10;}
</style>
<g>
	<g>
		<path class="st0" d="M68.9,27.8l11,22.5h-1L74.7,42H62.9l-4.1,8.4h-0.9L68.9,27.8z M68.8,29.9l-5.5,11.3h11L68.8,29.9z"/>
		<path class="st0" d="M26.1,80.4h-0.3c-2,0-3.9-0.5-5.6-1.6c-1.7-1.1-3.1-2.5-4.1-4.2c-1-1.8-1.5-3.6-1.5-5.6c0-3.1,1.1-5.8,3.4-8
			c2.2-2.2,4.9-3.4,8.1-3.4c2.1,0,4.1,0.5,6,1.6v1.1c-1.8-1.3-3.8-1.9-6-1.9c-2.9,0-5.3,1-7.4,3.1s-3.1,4.5-3.1,7.4
			c0,2.9,1,5.4,3.1,7.4s4.5,3.1,7.4,3.1c2.1,0,4.1-0.6,6-1.9v1.1C30.1,79.8,28.2,80.4,26.1,80.4z"/>
		<path class="st0" d="M51.9,58.1h1v22h-1v-8.4H36.8v8.4h-1v-22h1v12.8h15.1V58.1z"/>
		<path class="st0" d="M59.7,77c-2.2-2.3-3.3-5-3.3-8c0-3.1,1.1-5.7,3.4-7.9c2.2-2.2,4.9-3.4,8.1-3.4c3.1,0,5.8,1.1,8.1,3.3
			c2.2,2.2,3.3,4.9,3.3,8c0,3.1-1.1,5.8-3.3,8c-2.2,2.3-4.8,3.4-7.9,3.4h-0.4C64.5,80.5,61.9,79.3,59.7,77z M78.3,69.1
			c0-2.9-1-5.4-3.1-7.4c-2-2.1-4.5-3.1-7.4-3.1c-2.9,0-5.4,1-7.4,3.1c-2.1,2.1-3.1,4.5-3.1,7.4c0,2.9,1,5.4,3.1,7.4
			c2.1,2.1,4.5,3.1,7.4,3.1c2.9,0,5.3-1,7.4-3.1C77.3,74.4,78.3,71.9,78.3,69.1z"/>
		<path class="st0" d="M82.8,58.1H84c1.9,0,3.6,0.7,5,2.1s2.2,3,2.2,4.9c0,1.9-0.7,3.5-2.2,4.9c-1.5,1.4-3,2.1-4.7,2.1h-0.2l7.6,8
			h-1.3l-6.7-7v7h-0.9V58.1z M83.7,71.2h0.5c1.6,0,3-0.6,4.2-1.8c1.2-1.2,1.8-2.6,1.8-4.3c0-1.7-0.6-3.1-1.9-4.3
			c-1.3-1.2-2.7-1.8-4.3-1.8h-0.4V71.2z"/>
		<path class="st0" d="M101.4,80.5h-0.3c-1.8,0-3.3-0.6-4.6-1.9c-1.2-1.3-1.9-2.8-1.9-4.7V58.1h1v15.8c0,1.7,0.5,3,1.6,4.1
			c1.1,1.1,2.4,1.6,4,1.6c1.6,0,2.9-0.5,4-1.6c1.1-1.1,1.6-2.5,1.6-4.1V58.1h1v15.7c0,1.9-0.6,3.5-1.9,4.8
			C104.7,79.9,103.2,80.5,101.4,80.5z"/>
		<path class="st0" d="M119.2,59.2c-0.8-0.5-1.6-0.7-2.6-0.7c-1,0-1.8,0.3-2.4,0.9c-0.7,0.6-1,1.4-1,2.4V62c0,1.2,0.7,2.4,2.1,3.4
			c0.6,0.4,1.2,0.9,2,1.3c0.7,0.4,1.5,0.9,2.2,1.3c0.7,0.5,1.4,1,2,1.5c0.6,0.5,1.1,1.2,1.5,2c0.4,0.8,0.6,1.6,0.6,2.6v0.3
			c0,1.9-0.6,3.3-1.9,4.4c-1.3,1.1-2.8,1.6-4.7,1.6c-2.4,0-4.3-1-5.7-3v-1.6c0.5,1.1,1.3,2,2.2,2.7c1,0.7,2.2,1,3.7,1
			c1.5,0,2.7-0.5,3.8-1.4c1.1-0.9,1.6-2.2,1.6-3.8v-0.2c0-1-0.3-1.9-0.8-2.7c-0.5-0.8-1.1-1.5-1.9-2c-0.8-0.5-1.6-1.1-2.5-1.6
			c-0.9-0.6-1.7-1.1-2.5-1.6c-0.8-0.5-1.4-1.1-1.9-1.8c-0.5-0.7-0.8-1.6-0.8-2.4v-0.2c0-1.4,0.4-2.4,1.3-3.1c0.9-0.7,2-1.1,3.3-1.1
			c1.8,0,3.2,0.7,4.3,2v1.5C120.6,60.4,120,59.7,119.2,59.2z"/>
		<path class="st0" d="M47.8,87.8v21.1h6.8v0.9h-7.8v-22H47.8z"/>
		<path class="st0" d="M57.6,87.8h1v22h-1V87.8z"/>
		<path class="st0" d="M79.3,87.8h0.9v22.3L63.9,90.2v19.6h-0.9V87.5l16.2,19.9V87.8z"/>
		<path class="st0" d="M84.5,87.8h7.9v0.9h-6.9v12h5.8v0.9h-5.8v7.5h6.9v0.9h-7.9V87.8z"/>
	</g>
	<g>
		<line class="st1" x1="35.5" y1="41.5" x2="47.8" y2="41.5"/>
		<line class="st1" x1="90.2" y1="41.5" x2="102.4" y2="41.5"/>
	</g>
	<circle class="st2" cx="69" cy="69" r="67.5"/>
</g>
</svg>
